  0
SECTION
  2
HEADER
  9
$ACADVER
  1
AC1014
  9
$HANDSEED
  5
FFFF
  9
$MEASUREMENT
 70
     1
  0
ENDSEC
  0
SECTION
  2
TABLES
  0
TABLE
  2
VPORT
  5
8
330
0
100
AcDbSymbolTable
 70
     4
  0
VPORT
  5
2E
330
8
100
AcDbSymbolTableRecord
100
AcDbViewportTableRecord
  2
*ACTIVE
 70
     0
 10
0.0
 20
0.0
 11
1.0
 21
1.0
 12
210.0
 22
148.5
 13
0.0
 23
0.0
 14
10.0
 24
10.0
 15
10.0
 25
10.0
 16
0.0
 26
0.0
 36
1.0
 17
0.0
 27
0.0
 37
0.0
 40
341.0
 41
1.24
 42
50.0
 43
0.0
 44
0.0
 50
0.0
 51
0.0
 71
     0
 72
   100
 73
     1
 74
     3
 75
     0
 76
     0
 77
     0
 78
     0
  0
ENDTAB
  0
TABLE
  2
LTYPE
  5
5
330
0
100
AcDbSymbolTable
 70
     1
  0
LTYPE
  5
14
330
5
100
AcDbSymbolTableRecord
100
AcDbLinetypeTableRecord
  2
BYBLOCK
 70
     0
  3

 72
    65
 73
     0
 40
0.0
  0
LTYPE
  5
15
330
5
100
AcDbSymbolTableRecord
100
AcDbLinetypeTableRecord
  2
BYLAYER
 70
     0
  3

 72
    65
 73
     0
 40
0.0
  0
LTYPE
  5
16
330
5
100
AcDbSymbolTableRecord
100
AcDbLinetypeTableRecord
  2
CONTINUOUS
 70
     0
  3
Solid line
 72
    65
 73
     0
 40
0.0
  0
ENDTAB
  0
TABLE
  2
LAYER
  5
2
100
AcDbSymbolTable
 70
2
  0
LAYER
  5
50
100
AcDbSymbolTableRecord
100
AcDbLayerTableRecord
  2
0
 70
0
  6
CONTINUOUS
  0
LAYER
  5
51
100
AcDbSymbolTableRecord
100
AcDbLayerTableRecord
  2
Layer_1
 70
0
  6
CONTINUOUS
  0
ENDTAB
  0
TABLE
  2
STYLE
  5
3
330
0
100
AcDbSymbolTable
 70
     1
  0
STYLE
  5
11
330
3
100
AcDbSymbolTableRecord
100
AcDbTextStyleTableRecord
  2
STANDARD
 70
     0
 40
0.0
 41
1.0
 50
0.0
 71
     0
 42
2.5
  3
txt
  4

  0
ENDTAB
  0
TABLE
  2
VIEW
  5
6
330
0
100
AcDbSymbolTable
 70
     0
  0
ENDTAB
  0
TABLE
  2
UCS
  5
7
330
0
100
AcDbSymbolTable
 70
     0
  0
ENDTAB
  0
TABLE
  2
APPID
  5
9
330
0
100
AcDbSymbolTable
 70
     2
  0
APPID
  5
12
330
9
100
AcDbSymbolTableRecord
100
AcDbRegAppTableRecord
  2
ACAD
 70
     0
  0
ENDTAB
  0
TABLE
  2
DIMSTYLE
  5
A
330
0
100
AcDbSymbolTable
 70
     1
  0
DIMSTYLE
105
27
330
A
100
AcDbSymbolTableRecord
100
AcDbDimStyleTableRecord
  2
ISO-25
 70
     0
  3

  4

  5

  6

  7

 40
1.0
 41
2.5
 42
0.625
 43
3.75
 44
1.25
 45
0.0
 46
0.0
 47
0.0
 48
0.0
140
2.5
141
2.5
142
0.0
143
0.03937007874016
144
1.0
145
0.0
146
1.0
147
0.625
 71
     0
 72
     0
 73
     0
 74
     0
 75
     0
 76
     0
 77
     1
 78
     8
170
     0
171
     3
172
     1
173
     0
174
     0
175
     0
176
     0
177
     0
178
     0
270
     2
271
     2
272
     2
273
     2
274
     3
340
11
275
     0
280
     0
281
     0
282
     0
283
     0
284
     8
285
     0
286
     0
287
     3
288
     0
  0
ENDTAB
  0
TABLE
  2
BLOCK_RECORD
  5
1
330
0
100
AcDbSymbolTable
 70
     1
  0
BLOCK_RECORD
  5
1F
330
1
100
AcDbSymbolTableRecord
100
AcDbBlockTableRecord
  2
*MODEL_SPACE
  0
BLOCK_RECORD
  5
1B
330
1
100
AcDbSymbolTableRecord
100
AcDbBlockTableRecord
  2
*PAPER_SPACE
  0
ENDTAB
  0
ENDSEC
  0
SECTION
  2
BLOCKS
  0
BLOCK
  5
20
330
1F
100
AcDbEntity
  8
0
100
AcDbBlockBegin
  2
*MODEL_SPACE
 70
     0
 10
0.0
 20
0.0
 30
0.0
  3
*MODEL_SPACE
  1

  0
ENDBLK
  5
21
330
1F
100
AcDbEntity
  8
0
100
AcDbBlockEnd
  0
BLOCK
  5
1C
330
1B
100
AcDbEntity
 67
     1
  8
0
100
AcDbBlockBegin
  2
*PAPER_SPACE
  1

  0
ENDBLK
  5
1D
330
1B
100
AcDbEntity
 67
     1
  8
0
100
AcDbBlockEnd
  0
ENDSEC
  0
SECTION
  2
ENTITIES
  0
LWPOLYLINE
  5
100
100
AcDbEntity
  8
Layer_1
 62
7
100
AcDbPolyline
 90
40
 70
1
 10
388.338940
 20
178.959910
 30
0.0
 10
388.445620
 20
178.937010
 30
0.0
 10
388.745340
 20
178.812550
 30
0.0
 10
389.017120
 20
178.632210
 30
0.0
 10
389.245720
 20
178.403610
 30
0.0
 10
389.245720
 20
178.403610
 30
0.0
 10
389.426060
 20
178.131830
 30
0.0
 10
389.550520
 20
177.832100
 30
0.0
 10
389.614020
 20
177.512060
 30
0.0
 10
389.614020
 20
177.186940
 30
0.0
 10
389.550520
 20
176.869440
 30
0.0
 10
389.456520
 20
176.640840
 30
0.0
 10
389.426020
 20
176.569740
 30
0.0
 10
389.245680
 20
176.297960
 30
0.0
 10
389.017080
 20
176.069360
 30
0.0
 10
388.745300
 20
175.886480
 30
0.0
 10
388.445580
 20
175.762020
 30
0.0
 10
388.338900
 20
175.741720
 30
0.0
 10
388.125540
 20
175.698520
 30
0.0
 10
387.800420
 20
175.698520
 30
0.0
 10
387.589600
 20
175.741720
 30
0.0
 10
387.482920
 20
175.762020
 30
0.0
 10
387.183200
 20
175.886480
 30
0.0
 10
386.911420
 20
176.069360
 30
0.0
 10
386.682820
 20
176.297960
 30
0.0
 10
386.499940
 20
176.569740
 30
0.0
 10
386.469440
 20
176.640840
 30
0.0
 10
386.375440
 20
176.869440
 30
0.0
 10
386.311940
 20
177.186940
 30
0.0
 10
386.311940
 20
177.512060
 30
0.0
 10
386.375440
 20
177.832100
 30
0.0
 10
386.499900
 20
178.131830
 30
0.0
 10
386.682780
 20
178.403610
 30
0.0
 10
386.682780
 20
178.403610
 30
0.0
 10
386.911380
 20
178.632210
 30
0.0
 10
387.183160
 20
178.812550
 30
0.0
 10
387.482880
 20
178.937010
 30
0.0
 10
387.589560
 20
178.959910
 30
0.0
 10
387.800380
 20
179.000510
 30
0.0
 10
388.125500
 20
179.000510
 30
0.0
  0
LWPOLYLINE
  5
101
100
AcDbEntity
  8
Layer_1
 62
7
100
AcDbPolyline
 90
40
 70
1
 10
287.135070
 20
178.959910
 30
0.0
 10
287.241750
 20
178.937010
 30
0.0
 10
287.541470
 20
178.812550
 30
0.0
 10
287.813260
 20
178.632210
 30
0.0
 10
288.041860
 20
178.403610
 30
0.0
 10
288.041860
 20
178.403610
 30
0.0
 10
288.224740
 20
178.131830
 30
0.0
 10
288.349200
 20
177.832100
 30
0.0
 10
288.410200
 20
177.512060
 30
0.0
 10
288.410200
 20
177.186940
 30
0.0
 10
288.349200
 20
176.869440
 30
0.0
 10
288.252700
 20
176.640840
 30
0.0
 10
288.224800
 20
176.569740
 30
0.0
 10
288.041920
 20
176.297960
 30
0.0
 10
287.813320
 20
176.069360
 30
0.0
 10
287.541530
 20
175.886480
 30
0.0
 10
287.241810
 20
175.762020
 30
0.0
 10
287.135130
 20
175.741720
 30
0.0
 10
286.924310
 20
175.698520
 30
0.0
 10
286.596650
 20
175.698520
 30
0.0
 10
286.385830
 20
175.741720
 30
0.0
 10
286.279150
 20
175.762020
 30
0.0
 10
285.979430
 20
175.886480
 30
0.0
 10
285.707650
 20
176.069360
 30
0.0
 10
285.479050
 20
176.297960
 30
0.0
 10
285.296170
 20
176.569740
 30
0.0
 10
285.268270
 20
176.640840
 30
0.0
 10
285.171770
 20
176.869440
 30
0.0
 10
285.108270
 20
177.186940
 30
0.0
 10
285.108270
 20
177.512060
 30
0.0
 10
285.171770
 20
177.832100
 30
0.0
 10
285.296230
 20
178.131830
 30
0.0
 10
285.479110
 20
178.403610
 30
0.0
 10
285.479110
 20
178.403610
 30
0.0
 10
285.707710
 20
178.632210
 30
0.0
 10
285.979490
 20
178.812550
 30
0.0
 10
286.279210
 20
178.937010
 30
0.0
 10
286.385890
 20
178.959910
 30
0.0
 10
286.596710
 20
179.000510
 30
0.0
 10
286.924370
 20
179.000510
 30
0.0
  0
LWPOLYLINE
  5
102
100
AcDbEntity
  8
Layer_1
 62
7
100
AcDbPolyline
 90
40
 70
1
 10
489.542800
 20
178.959910
 30
0.0
 10
489.649490
 20
178.937010
 30
0.0
 10
489.949210
 20
178.812550
 30
0.0
 10
490.220990
 20
178.632210
 30
0.0
 10
490.449590
 20
178.403610
 30
0.0
 10
490.449590
 20
178.403610
 30
0.0
 10
490.629930
 20
178.131830
 30
0.0
 10
490.754390
 20
177.832100
 30
0.0
 10
490.817890
 20
177.512060
 30
0.0
 10
490.817890
 20
177.186940
 30
0.0
 10
490.754390
 20
176.869440
 30
0.0
 10
490.660390
 20
176.640840
 30
0.0
 10
490.629890
 20
176.569740
 30
0.0
 10
490.449550
 20
176.297960
 30
0.0
 10
490.220950
 20
176.069360
 30
0.0
 10
489.949170
 20
175.886480
 30
0.0
 10
489.649450
 20
175.762020
 30
0.0
 10
489.542760
 20
175.741720
 30
0.0
 10
489.329400
 20
175.698520
 30
0.0
 10
489.004280
 20
175.698520
 30
0.0
 10
488.793460
 20
175.741720
 30
0.0
 10
488.686780
 20
175.762020
 30
0.0
 10
488.384520
 20
175.886480
 30
0.0
 10
488.115280
 20
176.069360
 30
0.0
 10
487.884140
 20
176.297960
 30
0.0
 10
487.703800
 20
176.569740
 30
0.0
 10
487.673300
 20
176.640840
 30
0.0
 10
487.579300
 20
176.869440
 30
0.0
 10
487.515800
 20
177.186940
 30
0.0
 10
487.515800
 20
177.512060
 30
0.0
 10
487.579300
 20
177.832100
 30
0.0
 10
487.703760
 20
178.131830
 30
0.0
 10
487.884100
 20
178.403610
 30
0.0
 10
487.884100
 20
178.403610
 30
0.0
 10
488.115240
 20
178.632210
 30
0.0
 10
488.384480
 20
178.812550
 30
0.0
 10
488.686740
 20
178.937010
 30
0.0
 10
488.793420
 20
178.959910
 30
0.0
 10
489.004240
 20
179.000510
 30
0.0
 10
489.329360
 20
179.000510
 30
0.0
  0
LWPOLYLINE
  5
103
100
AcDbEntity
  8
Layer_1
 62
7
100
AcDbPolyline
 90
36
 70
1
 10
388.338940
 20
267.064978
 30
0.0
 10
388.445620
 20
267.044658
 30
0.0
 10
388.745340
 20
266.920198
 30
0.0
 10
389.017120
 20
266.739858
 30
0.0
 10
389.245720
 20
266.508717
 30
0.0
 10
389.426060
 20
266.239477
 30
0.0
 10
389.550520
 20
265.939757
 30
0.0
 10
389.614020
 20
265.619716
 30
0.0
 10
389.614020
 20
265.294596
 30
0.0
 10
389.550520
 20
264.974556
 30
0.0
 10
389.426060
 20
264.674835
 30
0.0
 10
389.245720
 20
264.405595
 30
0.0
 10
389.017120
 20
264.174455
 30
0.0
 10
388.745340
 20
263.994115
 30
0.0
 10
388.445620
 20
263.869655
 30
0.0
 10
388.338940
 20
263.849335
 30
0.0
 10
388.125580
 20
263.806155
 30
0.0
 10
387.800460
 20
263.806155
 30
0.0
 10
387.589640
 20
263.849335
 30
0.0
 10
387.482960
 20
263.869655
 30
0.0
 10
387.183240
 20
263.994115
 30
0.0
 10
386.911460
 20
264.174455
 30
0.0
 10
386.682860
 20
264.405595
 30
0.0
 10
386.499980
 20
264.674835
 30
0.0
 10
386.375520
 20
264.974556
 30
0.0
 10
386.312020
 20
265.294596
 30
0.0
 10
386.312020
 20
265.619716
 30
0.0
 10
386.375520
 20
265.939757
 30
0.0
 10
386.499980
 20
266.239477
 30
0.0
 10
386.682860
 20
266.508717
 30
0.0
 10
386.911460
 20
266.739858
 30
0.0
 10
387.183240
 20
266.920198
 30
0.0
 10
387.482960
 20
267.044658
 30
0.0
 10
387.589640
 20
267.064978
 30
0.0
 10
387.800460
 20
267.108158
 30
0.0
 10
388.125580
 20
267.108158
 30
0.0
  0
LWPOLYLINE
  5
104
100
AcDbEntity
  8
Layer_1
 62
7
100
AcDbPolyline
 90
36
 70
1
 10
499.067810
 20
267.064978
 30
0.0
 10
499.174490
 20
267.044658
 30
0.0
 10
499.474210
 20
266.920198
 30
0.0
 10
499.745990
 20
266.739858
 30
0.0
 10
499.974600
 20
266.508717
 30
0.0
 10
500.154940
 20
266.239477
 30
0.0
 10
500.279400
 20
265.939757
 30
0.0
 10
500.342900
 20
265.619716
 30
0.0
 10
500.342900
 20
265.294596
 30
0.0
 10
500.279400
 20
264.974556
 30
0.0
 10
500.154940
 20
264.674835
 30
0.0
 10
499.974600
 20
264.405595
 30
0.0
 10
499.745990
 20
264.174455
 30
0.0
 10
499.474210
 20
263.994115
 30
0.0
 10
499.174490
 20
263.869655
 30
0.0
 10
499.067810
 20
263.849335
 30
0.0
 10
498.854450
 20
263.806155
 30
0.0
 10
498.529330
 20
263.806155
 30
0.0
 10
498.318510
 20
263.849335
 30
0.0
 10
498.211830
 20
263.869655
 30
0.0
 10
497.909570
 20
263.994115
 30
0.0
 10
497.640330
 20
264.174455
 30
0.0
 10
497.409190
 20
264.405595
 30
0.0
 10
497.228850
 20
264.674835
 30
0.0
 10
497.104390
 20
264.974556
 30
0.0
 10
497.040890
 20
265.294596
 30
0.0
 10
497.040890
 20
265.619716
 30
0.0
 10
497.104390
 20
265.939757
 30
0.0
 10
497.228850
 20
266.239477
 30
0.0
 10
497.409190
 20
266.508717
 30
0.0
 10
497.640330
 20
266.739858
 30
0.0
 10
497.909570
 20
266.920198
 30
0.0
 10
498.211830
 20
267.044658
 30
0.0
 10
498.318510
 20
267.064978
 30
0.0
 10
498.529330
 20
267.108158
 30
0.0
 10
498.854450
 20
267.108158
 30
0.0
  0
LWPOLYLINE
  5
105
100
AcDbEntity
  8
Layer_1
 62
7
100
AcDbPolyline
 90
36
 70
1
 10
277.610070
 20
267.064978
 30
0.0
 10
277.716750
 20
267.044658
 30
0.0
 10
278.016470
 20
266.920198
 30
0.0
 10
278.288250
 20
266.739858
 30
0.0
 10
278.516850
 20
266.508717
 30
0.0
 10
278.697190
 20
266.239477
 30
0.0
 10
278.821650
 20
265.939757
 30
0.0
 10
278.885150
 20
265.619716
 30
0.0
 10
278.885150
 20
265.294596
 30
0.0
 10
278.821650
 20
264.974556
 30
0.0
 10
278.697190
 20
264.674835
 30
0.0
 10
278.516850
 20
264.405595
 30
0.0
 10
278.288250
 20
264.174455
 30
0.0
 10
278.016470
 20
263.994115
 30
0.0
 10
277.716750
 20
263.869655
 30
0.0
 10
277.610070
 20
263.849335
 30
0.0
 10
277.396700
 20
263.806155
 30
0.0
 10
277.071580
 20
263.806155
 30
0.0
 10
276.860760
 20
263.849335
 30
0.0
 10
276.754080
 20
263.869655
 30
0.0
 10
276.454360
 20
263.994115
 30
0.0
 10
276.182580
 20
264.174455
 30
0.0
 10
275.953980
 20
264.405595
 30
0.0
 10
275.771100
 20
264.674835
 30
0.0
 10
275.646640
 20
264.974556
 30
0.0
 10
275.583140
 20
265.294596
 30
0.0
 10
275.583140
 20
265.619716
 30
0.0
 10
275.646640
 20
265.939757
 30
0.0
 10
275.771100
 20
266.239477
 30
0.0
 10
275.953980
 20
266.508717
 30
0.0
 10
276.182580
 20
266.739858
 30
0.0
 10
276.454360
 20
266.920198
 30
0.0
 10
276.754080
 20
267.044658
 30
0.0
 10
276.860760
 20
267.064978
 30
0.0
 10
277.071580
 20
267.108158
 30
0.0
 10
277.396700
 20
267.108158
 30
0.0
  0
LWPOLYLINE
  5
106
100
AcDbEntity
  8
Layer_1
 62
7
100
AcDbPolyline
 90
2
 70
0
 10
413.911260
 20
256.879540
 30
0.0
 10
413.911260
 20
243.079720
 30
0.0
  0
LWPOLYLINE
  5
107
100
AcDbEntity
  8
Layer_1
 62
7
100
AcDbPolyline
 90
2
 70
0
 10
471.061260
 20
256.879540
 30
0.0
 10
457.261440
 20
256.879540
 30
0.0
  0
LWPOLYLINE
  5
108
100
AcDbEntity
  8
Layer_1
 62
7
100
AcDbPolyline
 90
2
 70
0
 10
492.740160
 20
177.349600
 30
0.0
 10
492.740160
 20
194.019620
 30
0.0
  0
LWPOLYLINE
  5
109
100
AcDbEntity
  8
Layer_1
 62
7
100
AcDbPolyline
 90
2
 70
0
 10
438.211440
 20
204.979720
 30
0.0
 10
452.011260
 20
204.979720
 30
0.0
  0
LWPOLYLINE
  5
10a
100
AcDbEntity
  8
Layer_1
 62
7
100
AcDbPolyline
 90
2
 70
0
 10
400.111440
 20
204.979720
 30
0.0
 10
413.911260
 20
204.979720
 30
0.0
  0
LWPOLYLINE
  5
10b
100
AcDbEntity
  8
Layer_1
 62
7
100
AcDbPolyline
 90
2
 70
0
 10
471.061260
 20
218.779540
 30
0.0
 10
471.061260
 20
204.979720
 30
0.0
  0
LWPOLYLINE
  5
10c
100
AcDbEntity
  8
Layer_1
 62
7
100
AcDbPolyline
 90
2
 70
0
 10
413.911260
 20
256.879540
 30
0.0
 10
400.111440
 20
256.879540
 30
0.0
  0
LWPOLYLINE
  5
10d
100
AcDbEntity
  8
Layer_1
 62
7
100
AcDbPolyline
 90
2
 70
0
 10
438.211440
 20
243.079720
 30
0.0
 10
438.211440
 20
256.879540
 30
0.0
  0
LWPOLYLINE
  5
10e
100
AcDbEntity
  8
Layer_1
 62
7
100
AcDbPolyline
 90
2
 70
0
 10
381.061440
 20
204.979720
 30
0.0
 10
394.861260
 20
204.979720
 30
0.0
  0
LWPOLYLINE
  5
10f
100
AcDbEntity
  8
Layer_1
 62
7
100
AcDbPolyline
 90
2
 70
0
 10
452.011260
 20
218.779540
 30
0.0
 10
438.211440
 20
218.779540
 30
0.0
  0
LWPOLYLINE
  5
110
100
AcDbEntity
  8
Layer_1
 62
7
100
AcDbPolyline
 90
2
 70
0
 10
480.586260
 20
199.729540
 30
0.0
 10
480.586260
 20
185.929720
 30
0.0
  0
LWPOLYLINE
  5
111
100
AcDbEntity
  8
Layer_1
 62
7
100
AcDbPolyline
 90
2
 70
0
 10
356.761260
 20
256.879540
 30
0.0
 10
356.761260
 20
243.079720
 30
0.0
  0
LWPOLYLINE
  5
112
100
AcDbEntity
  8
Layer_1
 62
7
100
AcDbPolyline
 90
2
 70
0
 10
423.436260
 20
199.729540
 30
0.0
 10
409.636440
 20
199.729540
 30
0.0
  0
LWPOLYLINE
  5
113
100
AcDbEntity
  8
Layer_1
 62
7
100
AcDbPolyline
 90
2
 70
0
 10
277.233860
 20
195.210880
 30
0.0
 10
283.187620
 20
195.210880
 30
0.0
  0
LWPOLYLINE
  5
114
100
AcDbEntity
  8
Layer_1
 62
7
100
AcDbPolyline
 90
2
 70
0
 10
413.911260
 20
218.779540
 30
0.0
 10
400.111440
 20
218.779540
 30
0.0
  0
LWPOLYLINE
  5
115
100
AcDbEntity
  8
Layer_1
 62
7
100
AcDbPolyline
 90
2
 70
0
 10
419.161440
 20
204.979720
 30
0.0
 10
419.161440
 20
218.779540
 30
0.0
  0
LWPOLYLINE
  5
116
100
AcDbEntity
  8
Layer_1
 62
7
100
AcDbPolyline
 90
2
 70
0
 10
419.161440
 20
204.979720
 30
0.0
 10
432.961260
 20
204.979720
 30
0.0
  0
LWPOLYLINE
  5
117
100
AcDbEntity
  8
Layer_1
 62
7
100
AcDbPolyline
 90
2
 70
0
 10
394.861260
 20
218.779540
 30
0.0
 10
394.861260
 20
204.979720
 30
0.0
  0
LWPOLYLINE
  5
118
100
AcDbEntity
  8
Layer_1
 62
7
100
AcDbPolyline
 90
2
 70
0
 10
466.786440
 20
185.929720
 30
0.0
 10
480.586260
 20
185.929720
 30
0.0
  0
LWPOLYLINE
  5
119
100
AcDbEntity
  8
Layer_1
 62
7
100
AcDbPolyline
 90
2
 70
0
 10
452.011260
 20
218.779540
 30
0.0
 10
452.011260
 20
204.979720
 30
0.0
  0
LWPOLYLINE
  5
11a
100
AcDbEntity
  8
Layer_1
 62
7
100
AcDbPolyline
 90
2
 70
0
 10
295.336440
 20
199.729540
 30
0.0
 10
414.157640
 20
199.729540
 30
0.0
  0
LWPOLYLINE
  5
11b
100
AcDbEntity
  8
Layer_1
 62
7
100
AcDbPolyline
 90
2
 70
0
 10
318.661260
 20
256.879540
 30
0.0
 10
304.861440
 20
256.879540
 30
0.0
  0
LWPOLYLINE
  5
11c
100
AcDbEntity
  8
Layer_1
 62
7
100
AcDbPolyline
 90
2
 70
0
 10
413.911260
 20
218.779540
 30
0.0
 10
413.911260
 20
204.979720
 30
0.0
  0
LWPOLYLINE
  5
11d
100
AcDbEntity
  8
Layer_1
 62
7
100
AcDbPolyline
 90
2
 70
0
 10
409.636440
 20
199.729540
 30
0.0
 10
480.586260
 20
199.729540
 30
0.0
  0
LWPOLYLINE
  5
11e
100
AcDbEntity
  8
Layer_1
 62
7
100
AcDbPolyline
 90
2
 70
0
 10
471.061260
 20
218.779540
 30
0.0
 10
457.261440
 20
218.779540
 30
0.0
  0
LWPOLYLINE
  5
11f
100
AcDbEntity
  8
Layer_1
 62
7
100
AcDbPolyline
 90
2
 70
0
 10
432.961260
 20
256.879540
 30
0.0
 10
419.161440
 20
256.879540
 30
0.0
  0
LWPOLYLINE
  5
120
100
AcDbEntity
  8
Layer_1
 62
7
100
AcDbPolyline
 90
2
 70
0
 10
299.611260
 20
256.879540
 30
0.0
 10
299.611260
 20
243.079720
 30
0.0
  0
LWPOLYLINE
  5
121
100
AcDbEntity
  8
Layer_1
 62
7
100
AcDbPolyline
 90
2
 70
0
 10
381.063980
 20
256.879540
 30
0.0
 10
381.061440
 20
204.979720
 30
0.0
  0
LWPOLYLINE
  5
122
100
AcDbEntity
  8
Layer_1
 62
7
100
AcDbPolyline
 90
2
 70
0
 10
400.111440
 20
204.979720
 30
0.0
 10
400.111440
 20
218.779540
 30
0.0
  0
LWPOLYLINE
  5
123
100
AcDbEntity
  8
Layer_1
 62
7
100
AcDbPolyline
 90
2
 70
0
 10
409.638980
 20
185.929720
 30
0.0
 10
480.588800
 20
185.929720
 30
0.0
  0
LWPOLYLINE
  5
124
100
AcDbEntity
  8
Layer_1
 62
7
100
AcDbPolyline
 90
2
 70
0
 10
409.636440
 20
185.929720
 30
0.0
 10
423.436260
 20
185.929720
 30
0.0
  0
LWPOLYLINE
  5
125
100
AcDbEntity
  8
Layer_1
 62
7
100
AcDbPolyline
 90
2
 70
0
 10
492.740160
 20
194.019620
 30
0.0
 10
499.882640
 20
194.019620
 30
0.0
  0
LWPOLYLINE
  5
126
100
AcDbEntity
  8
Layer_1
 62
7
100
AcDbPolyline
 90
2
 70
0
 10
490.111260
 20
218.779540
 30
0.0
 10
476.311440
 20
218.779540
 30
0.0
  0
LWPOLYLINE
  5
127
100
AcDbEntity
  8
Layer_1
 62
7
100
AcDbPolyline
 90
2
 70
0
 10
299.611260
 20
218.779540
 30
0.0
 10
285.811440
 20
218.779540
 30
0.0
  0
LWPOLYLINE
  5
128
100
AcDbEntity
  8
Layer_1
 62
7
100
AcDbPolyline
 90
2
 70
0
 10
362.011440
 20
204.979720
 30
0.0
 10
375.811260
 20
204.979720
 30
0.0
  0
LWPOLYLINE
  5
129
100
AcDbEntity
  8
Layer_1
 62
7
100
AcDbPolyline
 90
2
 70
0
 10
400.111440
 20
243.079720
 30
0.0
 10
413.911260
 20
243.079720
 30
0.0
  0
LWPOLYLINE
  5
12a
100
AcDbEntity
  8
Layer_1
 62
7
100
AcDbPolyline
 90
2
 70
0
 10
457.261440
 20
243.079720
 30
0.0
 10
457.261440
 20
256.879540
 30
0.0
  0
LWPOLYLINE
  5
12b
100
AcDbEntity
  8
Layer_1
 62
7
100
AcDbPolyline
 90
2
 70
0
 10
432.961260
 20
218.779540
 30
0.0
 10
432.961260
 20
204.979720
 30
0.0
  0
LWPOLYLINE
  5
12c
100
AcDbEntity
  8
Layer_1
 62
7
100
AcDbPolyline
 90
2
 70
0
 10
490.111260
 20
218.779540
 30
0.0
 10
490.111260
 20
204.979720
 30
0.0
  0
LWPOLYLINE
  5
12d
100
AcDbEntity
  8
Layer_1
 62
7
100
AcDbPolyline
 90
2
 70
0
 10
387.962620
 20
269.028360
 30
0.0
 10
277.233860
 20
269.028360
 30
0.0
  0
LWPOLYLINE
  5
12e
100
AcDbEntity
  8
Layer_1
 62
7
100
AcDbPolyline
 90
2
 70
0
 10
273.662620
 20
265.457120
 30
0.0
 10
273.667700
 20
198.782120
 30
0.0
  0
LWPOLYLINE
  5
12f
100
AcDbEntity
  8
Layer_1
 62
7
100
AcDbPolyline
 90
2
 70
0
 10
438.211440
 20
204.979720
 30
0.0
 10
438.211440
 20
218.779540
 30
0.0
  0
LWPOLYLINE
  5
130
100
AcDbEntity
  8
Layer_1
 62
7
100
AcDbPolyline
 90
2
 70
0
 10
295.336440
 20
185.929720
 30
0.0
 10
411.775120
 20
185.929720
 30
0.0
  0
LWPOLYLINE
  5
131
100
AcDbEntity
  8
Layer_1
 62
7
100
AcDbPolyline
 90
2
 70
0
 10
452.011260
 20
256.879540
 30
0.0
 10
438.211440
 20
256.879540
 30
0.0
  0
LWPOLYLINE
  5
132
100
AcDbEntity
  8
Layer_1
 62
7
100
AcDbPolyline
 90
2
 70
0
 10
285.811440
 20
243.079720
 30
0.0
 10
285.811440
 20
256.879540
 30
0.0
  0
LWPOLYLINE
  5
133
100
AcDbEntity
  8
Layer_1
 62
7
100
AcDbPolyline
 90
2
 70
0
 10
476.311440
 20
243.079720
 30
0.0
 10
476.311440
 20
256.879540
 30
0.0
  0
SPLINE
  5
134
100
AcDbEntity
  8
Layer_1
 62
7
100
AcDbSpline
 70
8
 71
3
 72
8
 73
4
 74
0
 40
0
 40
0
 40
0
 40
0
 40
1
 40
1
 40
1
 40
1
 10
277.238940
 20
269.032099
 30
0.0
 10
275.266500
 20
269.031734
 30
0.0
 10
273.667711
 20
267.432659
 30
0.0
 10
273.667700
 20
265.460219
 30
0.0
  0
LWPOLYLINE
  5
135
100
AcDbEntity
  8
Layer_1
 62
7
100
AcDbPolyline
 90
2
 70
0
 10
476.311440
 20
204.979720
 30
0.0
 10
476.311440
 20
218.779540
 30
0.0
  0
LWPOLYLINE
  5
136
100
AcDbEntity
  8
Layer_1
 62
7
100
AcDbPolyline
 90
2
 70
0
 10
432.961260
 20
218.779540
 30
0.0
 10
419.161440
 20
218.779540
 30
0.0
  0
LWPOLYLINE
  5
137
100
AcDbEntity
  8
Layer_1
 62
7
100
AcDbPolyline
 90
2
 70
0
 10
457.261440
 20
204.979720
 30
0.0
 10
457.261440
 20
218.779540
 30
0.0
  0
LWPOLYLINE
  5
138
100
AcDbEntity
  8
Layer_1
 62
7
100
AcDbPolyline
 90
2
 70
0
 10
476.311440
 20
204.979720
 30
0.0
 10
490.111260
 20
204.979720
 30
0.0
  0
LWPOLYLINE
  5
139
100
AcDbEntity
  8
Layer_1
 62
7
100
AcDbPolyline
 90
2
 70
0
 10
387.962620
 20
173.778360
 30
0.0
 10
489.166380
 20
173.778360
 30
0.0
  0
LWPOLYLINE
  5
13a
100
AcDbEntity
  8
Layer_1
 62
7
100
AcDbPolyline
 90
2
 70
0
 10
387.962620
 20
269.028360
 30
0.0
 10
499.882640
 20
269.028360
 30
0.0
  0
LWPOLYLINE
  5
13b
100
AcDbEntity
  8
Layer_1
 62
7
100
AcDbPolyline
 90
2
 70
0
 10
457.261440
 20
204.979720
 30
0.0
 10
471.061260
 20
204.979720
 30
0.0
  0
LWPOLYLINE
  5
13c
100
AcDbEntity
  8
Layer_1
 62
7
100
AcDbPolyline
 90
2
 70
0
 10
283.187620
 20
177.349600
 30
0.0
 10
283.187620
 20
195.210880
 30
0.0
  0
LWPOLYLINE
  5
13d
100
AcDbEntity
  8
Layer_1
 62
7
100
AcDbPolyline
 90
2
 70
0
 10
503.453880
 20
265.457120
 30
0.0
 10
503.453880
 20
197.590860
 30
0.0
  0
LWPOLYLINE
  5
13e
100
AcDbEntity
  8
Layer_1
 62
7
100
AcDbPolyline
 90
2
 70
0
 10
419.161440
 20
243.079720
 30
0.0
 10
432.961260
 20
243.079720
 30
0.0
  0
LWPOLYLINE
  5
13f
100
AcDbEntity
  8
Layer_1
 62
7
100
AcDbPolyline
 90
2
 70
0
 10
387.962620
 20
173.778360
 30
0.0
 10
286.758860
 20
173.778360
 30
0.0
  0
LWPOLYLINE
  5
140
100
AcDbEntity
  8
Layer_1
 62
7
100
AcDbPolyline
 90
2
 70
0
 10
394.863800
 20
256.879540
 30
0.0
 10
394.861260
 20
204.979720
 30
0.0
  0
LWPOLYLINE
  5
141
100
AcDbEntity
  8
Layer_1
 62
7
100
AcDbPolyline
 90
2
 70
0
 10
362.011440
 20
204.979720
 30
0.0
 10
362.011440
 20
218.779540
 30
0.0
  0
LWPOLYLINE
  5
142
100
AcDbEntity
  8
Layer_1
 62
7
100
AcDbPolyline
 90
2
 70
0
 10
342.961440
 20
204.979720
 30
0.0
 10
342.961440
 20
218.779540
 30
0.0
  0
LWPOLYLINE
  5
143
100
AcDbEntity
  8
Layer_1
 62
7
100
AcDbPolyline
 90
2
 70
0
 10
356.761260
 20
218.779540
 30
0.0
 10
342.961440
 20
218.779540
 30
0.0
  0
LWPOLYLINE
  5
144
100
AcDbEntity
  8
Layer_1
 62
7
100
AcDbPolyline
 90
2
 70
0
 10
356.761260
 20
237.829540
 30
0.0
 10
342.961440
 20
237.829540
 30
0.0
  0
LWPOLYLINE
  5
145
100
AcDbEntity
  8
Layer_1
 62
7
100
AcDbPolyline
 90
2
 70
0
 10
480.586260
 20
199.729540
 30
0.0
 10
466.786440
 20
199.729540
 30
0.0
  0
LWPOLYLINE
  5
146
100
AcDbEntity
  8
Layer_1
 62
7
100
AcDbPolyline
 90
2
 70
0
 10
323.911440
 20
224.029720
 30
0.0
 10
337.711260
 20
224.029720
 30
0.0
  0
LWPOLYLINE
  5
147
100
AcDbEntity
  8
Layer_1
 62
7
100
AcDbPolyline
 90
2
 70
0
 10
438.211440
 20
243.079720
 30
0.0
 10
452.011260
 20
243.079720
 30
0.0
  0
LWPOLYLINE
  5
148
100
AcDbEntity
  8
Layer_1
 62
7
100
AcDbPolyline
 90
2
 70
0
 10
295.336440
 20
185.929720
 30
0.0
 10
295.336440
 20
199.729540
 30
0.0
  0
LWPOLYLINE
  5
149
100
AcDbEntity
  8
Layer_1
 62
7
100
AcDbPolyline
 90
2
 70
0
 10
400.111440
 20
243.079720
 30
0.0
 10
400.111440
 20
256.879540
 30
0.0
  0
LWPOLYLINE
  5
14a
100
AcDbEntity
  8
Layer_1
 62
7
100
AcDbPolyline
 90
2
 70
0
 10
337.711260
 20
218.779540
 30
0.0
 10
337.711260
 20
204.979720
 30
0.0
  0
LWPOLYLINE
  5
14b
100
AcDbEntity
  8
Layer_1
 62
7
100
AcDbPolyline
 90
2
 70
0
 10
309.136260
 20
199.729540
 30
0.0
 10
295.336440
 20
199.729540
 30
0.0
  0
LWPOLYLINE
  5
14c
100
AcDbEntity
  8
Layer_1
 62
7
100
AcDbPolyline
 90
2
 70
0
 10
323.911440
 20
204.979720
 30
0.0
 10
323.911440
 20
218.779540
 30
0.0
  0
LWPOLYLINE
  5
14d
100
AcDbEntity
  8
Layer_1
 62
7
100
AcDbPolyline
 90
2
 70
0
 10
299.611260
 20
218.779540
 30
0.0
 10
299.611260
 20
204.979720
 30
0.0
  0
LWPOLYLINE
  5
14e
100
AcDbEntity
  8
Layer_1
 62
7
100
AcDbPolyline
 90
2
 70
0
 10
337.711260
 20
218.779540
 30
0.0
 10
323.911440
 20
218.779540
 30
0.0
  0
LWPOLYLINE
  5
14f
100
AcDbEntity
  8
Layer_1
 62
7
100
AcDbPolyline
 90
2
 70
0
 10
366.286260
 20
199.729540
 30
0.0
 10
352.486440
 20
199.729540
 30
0.0
  0
LWPOLYLINE
  5
150
100
AcDbEntity
  8
Layer_1
 62
7
100
AcDbPolyline
 90
2
 70
0
 10
342.961440
 20
224.029720
 30
0.0
 10
356.761260
 20
224.029720
 30
0.0
  0
LWPOLYLINE
  5
151
100
AcDbEntity
  8
Layer_1
 62
7
100
AcDbPolyline
 90
2
 70
0
 10
471.061260
 20
256.879540
 30
0.0
 10
471.061260
 20
243.079720
 30
0.0
  0
LWPOLYLINE
  5
152
100
AcDbEntity
  8
Layer_1
 62
7
100
AcDbPolyline
 90
2
 70
0
 10
342.961440
 20
204.979720
 30
0.0
 10
356.761260
 20
204.979720
 30
0.0
  0
LWPOLYLINE
  5
153
100
AcDbEntity
  8
Layer_1
 62
7
100
AcDbPolyline
 90
2
 70
0
 10
337.711260
 20
237.829540
 30
0.0
 10
323.911440
 20
237.829540
 30
0.0
  0
LWPOLYLINE
  5
154
100
AcDbEntity
  8
Layer_1
 62
7
100
AcDbPolyline
 90
2
 70
0
 10
318.661260
 20
237.829540
 30
0.0
 10
318.661260
 20
224.029720
 30
0.0
  0
LWPOLYLINE
  5
155
100
AcDbEntity
  8
Layer_1
 62
7
100
AcDbPolyline
 90
2
 70
0
 10
304.861440
 20
204.979720
 30
0.0
 10
304.861440
 20
218.779540
 30
0.0
  0
LWPOLYLINE
  5
156
100
AcDbEntity
  8
Layer_1
 62
7
100
AcDbPolyline
 90
2
 70
0
 10
304.861440
 20
204.979720
 30
0.0
 10
318.661260
 20
204.979720
 30
0.0
  0
LWPOLYLINE
  5
157
100
AcDbEntity
  8
Layer_1
 62
7
100
AcDbPolyline
 90
2
 70
0
 10
352.486440
 20
185.929720
 30
0.0
 10
366.286260
 20
185.929720
 30
0.0
  0
SPLINE
  5
158
100
AcDbEntity
  8
Layer_1
 62
7
100
AcDbSpline
 70
8
 71
3
 72
8
 73
4
 74
0
 40
0
 40
0
 40
0
 40
0
 40
1
 40
1
 40
1
 40
1
 10
273.665160
 20
198.780596
 30
0.0
 10
273.665244
 20
196.808207
 30
0.0
 10
275.264011
 20
195.209213
 30
0.0
 10
277.236400
 20
195.208848
 30
0.0
  0
LWPOLYLINE
  5
159
100
AcDbEntity
  8
Layer_1
 62
7
100
AcDbPolyline
 90
2
 70
0
 10
419.161440
 20
224.029720
 30
0.0
 10
432.961260
 20
224.029720
 30
0.0
  0
LWPOLYLINE
  5
15a
100
AcDbEntity
  8
Layer_1
 62
7
100
AcDbPolyline
 90
2
 70
0
 10
375.811260
 20
237.829540
 30
0.0
 10
362.011440
 20
237.829540
 30
0.0
  0
LWPOLYLINE
  5
15b
100
AcDbEntity
  8
Layer_1
 62
7
100
AcDbPolyline
 90
2
 70
0
 10
285.811440
 20
204.979720
 30
0.0
 10
285.811440
 20
218.779540
 30
0.0
  0
LWPOLYLINE
  5
15c
100
AcDbEntity
  8
Layer_1
 62
7
100
AcDbPolyline
 90
2
 70
0
 10
400.111440
 20
224.029720
 30
0.0
 10
413.911260
 20
224.029720
 30
0.0
  0
LWPOLYLINE
  5
15d
100
AcDbEntity
  8
Layer_1
 62
7
100
AcDbPolyline
 90
2
 70
0
 10
490.111260
 20
256.879540
 30
0.0
 10
476.311440
 20
256.879540
 30
0.0
  0
SPLINE
  5
15e
100
AcDbEntity
  8
Layer_1
 62
7
100
AcDbSpline
 70
8
 71
3
 72
8
 73
4
 74
0
 40
0
 40
0
 40
0
 40
0
 40
1
 40
1
 40
1
 40
1
 10
489.168920
 20
173.777344
 30
0.0
 10
491.141408
 20
173.777709
 30
0.0
 10
492.740216
 20
175.376858
 30
0.0
 10
492.740160
 20
177.349346
 30
0.0
  0
LWPOLYLINE
  5
15f
100
AcDbEntity
  8
Layer_1
 62
7
100
AcDbPolyline
 90
2
 70
0
 10
419.161440
 20
243.079720
 30
0.0
 10
419.161440
 20
256.879540
 30
0.0
  0
LWPOLYLINE
  5
160
100
AcDbEntity
  8
Layer_1
 62
7
100
AcDbPolyline
 90
2
 70
0
 10
304.861440
 20
224.029720
 30
0.0
 10
304.861440
 20
237.829540
 30
0.0
  0
LWPOLYLINE
  5
161
100
AcDbEntity
  8
Layer_1
 62
7
100
AcDbPolyline
 90
2
 70
0
 10
337.711260
 20
237.829540
 30
0.0
 10
337.711260
 20
224.029720
 30
0.0
  0
LWPOLYLINE
  5
162
100
AcDbEntity
  8
Layer_1
 62
7
100
AcDbPolyline
 90
2
 70
0
 10
457.261440
 20
243.079720
 30
0.0
 10
471.061260
 20
243.079720
 30
0.0
  0
LWPOLYLINE
  5
163
100
AcDbEntity
  8
Layer_1
 62
7
100
AcDbPolyline
 90
2
 70
0
 10
295.336440
 20
185.929720
 30
0.0
 10
309.136260
 20
185.929720
 30
0.0
  0
LWPOLYLINE
  5
164
100
AcDbEntity
  8
Layer_1
 62
7
100
AcDbPolyline
 90
2
 70
0
 10
375.811260
 20
218.779540
 30
0.0
 10
375.811260
 20
204.979720
 30
0.0
  0
LWPOLYLINE
  5
165
100
AcDbEntity
  8
Layer_1
 62
7
100
AcDbPolyline
 90
2
 70
0
 10
375.811260
 20
237.829540
 30
0.0
 10
375.811260
 20
224.029720
 30
0.0
  0
LWPOLYLINE
  5
166
100
AcDbEntity
  8
Layer_1
 62
7
100
AcDbPolyline
 90
2
 70
0
 10
419.161440
 20
224.029720
 30
0.0
 10
419.161440
 20
237.829540
 30
0.0
  0
LWPOLYLINE
  5
167
100
AcDbEntity
  8
Layer_1
 62
7
100
AcDbPolyline
 90
2
 70
0
 10
438.211440
 20
224.029720
 30
0.0
 10
438.211440
 20
237.829540
 30
0.0
  0
LWPOLYLINE
  5
168
100
AcDbEntity
  8
Layer_1
 62
7
100
AcDbPolyline
 90
2
 70
0
 10
432.961260
 20
237.829540
 30
0.0
 10
432.961260
 20
224.029720
 30
0.0
  0
LWPOLYLINE
  5
169
100
AcDbEntity
  8
Layer_1
 62
7
100
AcDbPolyline
 90
2
 70
0
 10
304.861440
 20
224.029720
 30
0.0
 10
318.661260
 20
224.029720
 30
0.0
  0
LWPOLYLINE
  5
16a
100
AcDbEntity
  8
Layer_1
 62
7
100
AcDbPolyline
 90
2
 70
0
 10
452.011260
 20
237.829540
 30
0.0
 10
438.211440
 20
237.829540
 30
0.0
  0
LWPOLYLINE
  5
16b
100
AcDbEntity
  8
Layer_1
 62
7
100
AcDbPolyline
 90
2
 70
0
 10
323.911440
 20
204.979720
 30
0.0
 10
337.711260
 20
204.979720
 30
0.0
  0
LWPOLYLINE
  5
16c
100
AcDbEntity
  8
Layer_1
 62
7
100
AcDbPolyline
 90
2
 70
0
 10
362.011440
 20
224.029720
 30
0.0
 10
375.811260
 20
224.029720
 30
0.0
  0
LWPOLYLINE
  5
16d
100
AcDbEntity
  8
Layer_1
 62
7
100
AcDbPolyline
 90
2
 70
0
 10
375.811260
 20
218.779540
 30
0.0
 10
362.011440
 20
218.779540
 30
0.0
  0
LWPOLYLINE
  5
16e
100
AcDbEntity
  8
Layer_1
 62
7
100
AcDbPolyline
 90
2
 70
0
 10
285.811440
 20
224.029720
 30
0.0
 10
299.611260
 20
224.029720
 30
0.0
  0
LWPOLYLINE
  5
16f
100
AcDbEntity
  8
Layer_1
 62
7
100
AcDbPolyline
 90
2
 70
0
 10
356.761260
 20
256.879540
 30
0.0
 10
342.961440
 20
256.879540
 30
0.0
  0
SPLINE
  5
170
100
AcDbEntity
  8
Layer_1
 62
7
100
AcDbSpline
 70
8
 71
3
 72
8
 73
4
 74
0
 40
0
 40
0
 40
0
 40
0
 40
1
 40
1
 40
1
 40
1
 10
503.456420
 20
265.455952
 30
0.0
 10
503.456418
 20
267.428398
 30
0.0
 10
501.857627
 20
269.027483
 30
0.0
 10
499.885180
 20
269.027848
 30
0.0
  0
LWPOLYLINE
  5
171
100
AcDbEntity
  8
Layer_1
 62
7
100
AcDbPolyline
 90
2
 70
0
 10
318.661260
 20
256.879540
 30
0.0
 10
318.661260
 20
243.079720
 30
0.0
  0
LWPOLYLINE
  5
172
100
AcDbEntity
  8
Layer_1
 62
7
100
AcDbPolyline
 90
2
 70
0
 10
432.961260
 20
237.829540
 30
0.0
 10
419.161440
 20
237.829540
 30
0.0
  0
LWPOLYLINE
  5
173
100
AcDbEntity
  8
Layer_1
 62
7
100
AcDbPolyline
 90
2
 70
0
 10
362.011440
 20
243.079720
 30
0.0
 10
362.011440
 20
256.879540
 30
0.0
  0
LWPOLYLINE
  5
174
100
AcDbEntity
  8
Layer_1
 62
7
100
AcDbPolyline
 90
2
 70
0
 10
318.661260
 20
218.779540
 30
0.0
 10
318.661260
 20
204.979720
 30
0.0
  0
LWPOLYLINE
  5
175
100
AcDbEntity
  8
Layer_1
 62
7
100
AcDbPolyline
 90
2
 70
0
 10
438.211440
 20
224.029720
 30
0.0
 10
452.011260
 20
224.029720
 30
0.0
  0
LWPOLYLINE
  5
176
100
AcDbEntity
  8
Layer_1
 62
7
100
AcDbPolyline
 90
2
 70
0
 10
476.311440
 20
224.029720
 30
0.0
 10
490.111260
 20
224.029720
 30
0.0
  0
LWPOLYLINE
  5
177
100
AcDbEntity
  8
Layer_1
 62
7
100
AcDbPolyline
 90
2
 70
0
 10
299.611260
 20
237.829540
 30
0.0
 10
285.811440
 20
237.829540
 30
0.0
  0
LWPOLYLINE
  5
178
100
AcDbEntity
  8
Layer_1
 62
7
100
AcDbPolyline
 90
2
 70
0
 10
457.261440
 20
224.029720
 30
0.0
 10
471.061260
 20
224.029720
 30
0.0
  0
LWPOLYLINE
  5
179
100
AcDbEntity
  8
Layer_1
 62
7
100
AcDbPolyline
 90
2
 70
0
 10
476.311440
 20
224.029720
 30
0.0
 10
476.311440
 20
237.829540
 30
0.0
  0
LWPOLYLINE
  5
17a
100
AcDbEntity
  8
Layer_1
 62
7
100
AcDbPolyline
 90
2
 70
0
 10
285.811440
 20
204.979720
 30
0.0
 10
299.611260
 20
204.979720
 30
0.0
  0
LWPOLYLINE
  5
17b
100
AcDbEntity
  8
Layer_1
 62
7
100
AcDbPolyline
 90
2
 70
0
 10
342.961440
 20
243.079720
 30
0.0
 10
342.961440
 20
256.879540
 30
0.0
  0
LWPOLYLINE
  5
17c
100
AcDbEntity
  8
Layer_1
 62
7
100
AcDbPolyline
 90
2
 70
0
 10
375.811260
 20
256.879540
 30
0.0
 10
375.811260
 20
243.079720
 30
0.0
  0
LWPOLYLINE
  5
17d
100
AcDbEntity
  8
Layer_1
 62
7
100
AcDbPolyline
 90
2
 70
0
 10
452.011260
 20
237.829540
 30
0.0
 10
452.011260
 20
224.029720
 30
0.0
  0
LWPOLYLINE
  5
17e
100
AcDbEntity
  8
Layer_1
 62
7
100
AcDbPolyline
 90
2
 70
0
 10
285.811440
 20
243.079720
 30
0.0
 10
299.611260
 20
243.079720
 30
0.0
  0
LWPOLYLINE
  5
17f
100
AcDbEntity
  8
Layer_1
 62
7
100
AcDbPolyline
 90
2
 70
0
 10
413.911260
 20
237.829540
 30
0.0
 10
400.111440
 20
237.829540
 30
0.0
  0
LWPOLYLINE
  5
180
100
AcDbEntity
  8
Layer_1
 62
7
100
AcDbPolyline
 90
2
 70
0
 10
318.661260
 20
218.779540
 30
0.0
 10
304.861440
 20
218.779540
 30
0.0
  0
LWPOLYLINE
  5
181
100
AcDbEntity
  8
Layer_1
 62
7
100
AcDbPolyline
 90
2
 70
0
 10
299.611260
 20
237.829540
 30
0.0
 10
299.611260
 20
224.029720
 30
0.0
  0
LWPOLYLINE
  5
182
100
AcDbEntity
  8
Layer_1
 62
7
100
AcDbPolyline
 90
2
 70
0
 10
323.911440
 20
224.029720
 30
0.0
 10
323.911440
 20
237.829540
 30
0.0
  0
LWPOLYLINE
  5
183
100
AcDbEntity
  8
Layer_1
 62
7
100
AcDbPolyline
 90
2
 70
0
 10
304.861440
 20
243.079720
 30
0.0
 10
304.861440
 20
256.879540
 30
0.0
  0
LWPOLYLINE
  5
184
100
AcDbEntity
  8
Layer_1
 62
7
100
AcDbPolyline
 90
2
 70
0
 10
471.061260
 20
237.829540
 30
0.0
 10
471.061260
 20
224.029720
 30
0.0
  0
SPLINE
  5
185
100
AcDbEntity
  8
Layer_1
 62
7
100
AcDbSpline
 70
8
 71
3
 72
8
 73
4
 74
0
 40
0
 40
0
 40
0
 40
0
 40
1
 40
1
 40
1
 40
1
 10
283.190160
 20
177.349346
 30
0.0
 10
283.190104
 20
175.376858
 30
0.0
 10
284.788912
 20
173.777709
 30
0.0
 10
286.761400
 20
173.777344
 30
0.0
  0
LWPOLYLINE
  5
186
100
AcDbEntity
  8
Layer_1
 62
7
100
AcDbPolyline
 90
2
 70
0
 10
285.811440
 20
224.029720
 30
0.0
 10
285.811440
 20
237.829540
 30
0.0
  0
LWPOLYLINE
  5
187
100
AcDbEntity
  8
Layer_1
 62
7
100
AcDbPolyline
 90
2
 70
0
 10
342.961440
 20
224.029720
 30
0.0
 10
342.961440
 20
237.829540
 30
0.0
  0
LWPOLYLINE
  5
188
100
AcDbEntity
  8
Layer_1
 62
7
100
AcDbPolyline
 90
2
 70
0
 10
432.961260
 20
256.879540
 30
0.0
 10
432.961260
 20
243.079720
 30
0.0
  0
LWPOLYLINE
  5
189
100
AcDbEntity
  8
Layer_1
 62
7
100
AcDbPolyline
 90
2
 70
0
 10
476.311440
 20
243.079720
 30
0.0
 10
490.111260
 20
243.079720
 30
0.0
  0
SPLINE
  5
18a
100
AcDbEntity
  8
Layer_1
 62
7
100
AcDbSpline
 70
8
 71
3
 72
8
 73
4
 74
0
 40
0
 40
0
 40
0
 40
0
 40
1
 40
1
 40
1
 40
1
 10
499.885180
 20
194.018096
 30
0.0
 10
501.857668
 20
194.018461
 30
0.0
 10
503.456476
 20
195.617610
 30
0.0
 10
503.456420
 20
197.590098
 30
0.0
  0
LWPOLYLINE
  5
18b
100
AcDbEntity
  8
Layer_1
 62
7
100
AcDbPolyline
 90
2
 70
0
 10
490.111260
 20
256.879540
 30
0.0
 10
490.111260
 20
243.079720
 30
0.0
  0
LWPOLYLINE
  5
18c
100
AcDbEntity
  8
Layer_1
 62
7
100
AcDbPolyline
 90
2
 70
0
 10
452.011260
 20
256.879540
 30
0.0
 10
452.011260
 20
243.079720
 30
0.0
  0
LWPOLYLINE
  5
18d
100
AcDbEntity
  8
Layer_1
 62
7
100
AcDbPolyline
 90
2
 70
0
 10
356.761260
 20
218.779540
 30
0.0
 10
356.761260
 20
204.979720
 30
0.0
  0
LWPOLYLINE
  5
18e
100
AcDbEntity
  8
Layer_1
 62
7
100
AcDbPolyline
 90
2
 70
0
 10
490.111260
 20
237.829540
 30
0.0
 10
476.311440
 20
237.829540
 30
0.0
  0
LWPOLYLINE
  5
18f
100
AcDbEntity
  8
Layer_1
 62
7
100
AcDbPolyline
 90
2
 70
0
 10
318.661260
 20
237.829540
 30
0.0
 10
304.861440
 20
237.829540
 30
0.0
  0
LWPOLYLINE
  5
190
100
AcDbEntity
  8
Layer_1
 62
7
100
AcDbPolyline
 90
2
 70
0
 10
337.711260
 20
256.879540
 30
0.0
 10
323.911440
 20
256.879540
 30
0.0
  0
LWPOLYLINE
  5
191
100
AcDbEntity
  8
Layer_1
 62
7
100
AcDbPolyline
 90
2
 70
0
 10
394.861260
 20
256.879540
 30
0.0
 10
381.061440
 20
256.879540
 30
0.0
  0
LWPOLYLINE
  5
192
100
AcDbEntity
  8
Layer_1
 62
7
100
AcDbPolyline
 90
2
 70
0
 10
337.711260
 20
256.879540
 30
0.0
 10
337.711260
 20
243.079720
 30
0.0
  0
LWPOLYLINE
  5
193
100
AcDbEntity
  8
Layer_1
 62
7
100
AcDbPolyline
 90
2
 70
0
 10
490.111260
 20
237.829540
 30
0.0
 10
490.111260
 20
224.029720
 30
0.0
  0
LWPOLYLINE
  5
194
100
AcDbEntity
  8
Layer_1
 62
7
100
AcDbPolyline
 90
2
 70
0
 10
394.861260
 20
256.879540
 30
0.0
 10
394.861260
 20
243.079720
 30
0.0
  0
LWPOLYLINE
  5
195
100
AcDbEntity
  8
Layer_1
 62
7
100
AcDbPolyline
 90
2
 70
0
 10
413.911260
 20
237.829540
 30
0.0
 10
413.911260
 20
224.029720
 30
0.0
  0
LWPOLYLINE
  5
196
100
AcDbEntity
  8
Layer_1
 62
7
100
AcDbPolyline
 90
2
 70
0
 10
375.811260
 20
256.879540
 30
0.0
 10
362.011440
 20
256.879540
 30
0.0
  0
LWPOLYLINE
  5
197
100
AcDbEntity
  8
Layer_1
 62
7
100
AcDbPolyline
 90
2
 70
0
 10
471.061260
 20
237.829540
 30
0.0
 10
457.261440
 20
237.829540
 30
0.0
  0
LWPOLYLINE
  5
198
100
AcDbEntity
  8
Layer_1
 62
7
100
AcDbPolyline
 90
2
 70
0
 10
323.911440
 20
243.079720
 30
0.0
 10
323.911440
 20
256.879540
 30
0.0
  0
LWPOLYLINE
  5
199
100
AcDbEntity
  8
Layer_1
 62
7
100
AcDbPolyline
 90
2
 70
0
 10
342.961440
 20
243.079720
 30
0.0
 10
356.761260
 20
243.079720
 30
0.0
  0
LWPOLYLINE
  5
19a
100
AcDbEntity
  8
Layer_1
 62
7
100
AcDbPolyline
 90
2
 70
0
 10
323.911440
 20
243.079720
 30
0.0
 10
337.711260
 20
243.079720
 30
0.0
  0
LWPOLYLINE
  5
19b
100
AcDbEntity
  8
Layer_1
 62
7
100
AcDbPolyline
 90
2
 70
0
 10
457.261440
 20
224.029720
 30
0.0
 10
457.261440
 20
237.829540
 30
0.0
  0
LWPOLYLINE
  5
19c
100
AcDbEntity
  8
Layer_1
 62
7
100
AcDbPolyline
 90
2
 70
0
 10
362.011440
 20
224.029720
 30
0.0
 10
362.011440
 20
237.829540
 30
0.0
  0
LWPOLYLINE
  5
19d
100
AcDbEntity
  8
Layer_1
 62
7
100
AcDbPolyline
 90
2
 70
0
 10
304.861440
 20
243.079720
 30
0.0
 10
318.661260
 20
243.079720
 30
0.0
  0
LWPOLYLINE
  5
19e
100
AcDbEntity
  8
Layer_1
 62
7
100
AcDbPolyline
 90
2
 70
0
 10
299.611260
 20
256.879540
 30
0.0
 10
285.811440
 20
256.879540
 30
0.0
  0
LWPOLYLINE
  5
19f
100
AcDbEntity
  8
Layer_1
 62
7
100
AcDbPolyline
 90
2
 70
0
 10
356.761260
 20
237.829540
 30
0.0
 10
356.761260
 20
224.029720
 30
0.0
  0
LWPOLYLINE
  5
1a0
100
AcDbEntity
  8
Layer_1
 62
7
100
AcDbPolyline
 90
2
 70
0
 10
381.061440
 20
243.079720
 30
0.0
 10
381.061440
 20
256.879540
 30
0.0
  0
LWPOLYLINE
  5
1a1
100
AcDbEntity
  8
Layer_1
 62
7
100
AcDbPolyline
 90
2
 70
0
 10
381.061440
 20
204.979720
 30
0.0
 10
381.061440
 20
218.779540
 30
0.0
  0
LWPOLYLINE
  5
1a2
100
AcDbEntity
  8
Layer_1
 62
7
100
AcDbPolyline
 90
2
 70
0
 10
362.011440
 20
243.079720
 30
0.0
 10
375.811260
 20
243.079720
 30
0.0
  0
LWPOLYLINE
  5
1a3
100
AcDbEntity
  8
Layer_1
 62
7
100
AcDbPolyline
 90
2
 70
0
 10
400.111440
 20
224.029720
 30
0.0
 10
400.111440
 20
237.829540
 30
0.0
  0
ENDSEC
  0
SECTION
  2
OBJECTS
  0
DICTIONARY
  5
C
330
0
100
AcDbDictionary
  3
ACAD_GROUP
350
D
  3
ACAD_MLINESTYLE
350
17
  0
DICTIONARY
  5
D
330
C
100
AcDbDictionary
  0
DICTIONARY
  5
1A
330
C
100
AcDbDictionary
  0
DICTIONARY
  5
17
330
C
100
AcDbDictionary
  3
STANDARD
350
18
  0
DICTIONARY
  5
19
330
C
100
AcDbDictionary
  0
ENDSEC
  0
EOF
