  0
SECTION
  2
HEADER
  9
$ACADVER
  1
AC1014
  9
$HANDSEED
  5
FFFF
  9
$MEASUREMENT
 70
     1
  0
ENDSEC
  0
SECTION
  2
TABLES
  0
TABLE
  2
VPORT
  5
8
330
0
100
AcDbSymbolTable
 70
     4
  0
VPORT
  5
2E
330
8
100
AcDbSymbolTableRecord
100
AcDbViewportTableRecord
  2
*ACTIVE
 70
     0
 10
0.0
 20
0.0
 11
1.0
 21
1.0
 12
210.0
 22
148.5
 13
0.0
 23
0.0
 14
10.0
 24
10.0
 15
10.0
 25
10.0
 16
0.0
 26
0.0
 36
1.0
 17
0.0
 27
0.0
 37
0.0
 40
341.0
 41
1.24
 42
50.0
 43
0.0
 44
0.0
 50
0.0
 51
0.0
 71
     0
 72
   100
 73
     1
 74
     3
 75
     0
 76
     0
 77
     0
 78
     0
  0
ENDTAB
  0
TABLE
  2
LTYPE
  5
5
330
0
100
AcDbSymbolTable
 70
     1
  0
LTYPE
  5
14
330
5
100
AcDbSymbolTableRecord
100
AcDbLinetypeTableRecord
  2
BYBLOCK
 70
     0
  3

 72
    65
 73
     0
 40
0.0
  0
LTYPE
  5
15
330
5
100
AcDbSymbolTableRecord
100
AcDbLinetypeTableRecord
  2
BYLAYER
 70
     0
  3

 72
    65
 73
     0
 40
0.0
  0
LTYPE
  5
16
330
5
100
AcDbSymbolTableRecord
100
AcDbLinetypeTableRecord
  2
CONTINUOUS
 70
     0
  3
Solid line
 72
    65
 73
     0
 40
0.0
  0
ENDTAB
  0
TABLE
  2
LAYER
  5
2
100
AcDbSymbolTable
 70
1
  0
LAYER
  5
50
100
AcDbSymbolTableRecord
100
AcDbLayerTableRecord
  2
0
 70
0
  6
CONTINUOUS
  0
ENDTAB
  0
TABLE
  2
STYLE
  5
3
330
0
100
AcDbSymbolTable
 70
     1
  0
STYLE
  5
11
330
3
100
AcDbSymbolTableRecord
100
AcDbTextStyleTableRecord
  2
STANDARD
 70
     0
 40
0.0
 41
1.0
 50
0.0
 71
     0
 42
2.5
  3
txt
  4

  0
ENDTAB
  0
TABLE
  2
VIEW
  5
6
330
0
100
AcDbSymbolTable
 70
     0
  0
ENDTAB
  0
TABLE
  2
UCS
  5
7
330
0
100
AcDbSymbolTable
 70
     0
  0
ENDTAB
  0
TABLE
  2
APPID
  5
9
330
0
100
AcDbSymbolTable
 70
     2
  0
APPID
  5
12
330
9
100
AcDbSymbolTableRecord
100
AcDbRegAppTableRecord
  2
ACAD
 70
     0
  0
ENDTAB
  0
TABLE
  2
DIMSTYLE
  5
A
330
0
100
AcDbSymbolTable
 70
     1
  0
DIMSTYLE
105
27
330
A
100
AcDbSymbolTableRecord
100
AcDbDimStyleTableRecord
  2
ISO-25
 70
     0
  3

  4

  5

  6

  7

 40
1.0
 41
2.5
 42
0.625
 43
3.75
 44
1.25
 45
0.0
 46
0.0
 47
0.0
 48
0.0
140
2.5
141
2.5
142
0.0
143
0.03937007874016
144
1.0
145
0.0
146
1.0
147
0.625
 71
     0
 72
     0
 73
     0
 74
     0
 75
     0
 76
     0
 77
     1
 78
     8
170
     0
171
     3
172
     1
173
     0
174
     0
175
     0
176
     0
177
     0
178
     0
270
     2
271
     2
272
     2
273
     2
274
     3
340
11
275
     0
280
     0
281
     0
282
     0
283
     0
284
     8
285
     0
286
     0
287
     3
288
     0
  0
ENDTAB
  0
TABLE
  2
BLOCK_RECORD
  5
1
330
0
100
AcDbSymbolTable
 70
     1
  0
BLOCK_RECORD
  5
1F
330
1
100
AcDbSymbolTableRecord
100
AcDbBlockTableRecord
  2
*MODEL_SPACE
  0
BLOCK_RECORD
  5
1B
330
1
100
AcDbSymbolTableRecord
100
AcDbBlockTableRecord
  2
*PAPER_SPACE
  0
ENDTAB
  0
ENDSEC
  0
SECTION
  2
BLOCKS
  0
BLOCK
  5
20
330
1F
100
AcDbEntity
  8
0
100
AcDbBlockBegin
  2
*MODEL_SPACE
 70
     0
 10
0.0
 20
0.0
 30
0.0
  3
*MODEL_SPACE
  1

  0
ENDBLK
  5
21
330
1F
100
AcDbEntity
  8
0
100
AcDbBlockEnd
  0
BLOCK
  5
1C
330
1B
100
AcDbEntity
 67
     1
  8
0
100
AcDbBlockBegin
  2
*PAPER_SPACE
  1

  0
ENDBLK
  5
1D
330
1B
100
AcDbEntity
 67
     1
  8
0
100
AcDbBlockEnd
  0
ENDSEC
  0
SECTION
  2
ENTITIES
  0
LWPOLYLINE
  5
100
100
AcDbEntity
  8
0
 62
7
100
AcDbPolyline
 90
37
 70
1
 10
120.703790
 20
-95.066190
 30
0.0
 10
120.810470
 20
-95.089051
 30
0.0
 10
121.110192
 20
-95.213511
 30
0.0
 10
121.379433
 20
-95.393852
 30
0.0
 10
121.610573
 20
-95.622453
 30
0.0
 10
121.790914
 20
-95.894234
 30
0.0
 10
121.915375
 20
-96.193955
 30
0.0
 10
121.978875
 20
-96.513996
 30
0.0
 10
121.978875
 20
-96.839117
 30
0.0
 10
121.915375
 20
-97.156618
 30
0.0
 10
121.790914
 20
-97.458879
 30
0.0
 10
121.610573
 20
-97.728120
 30
0.0
 10
121.379433
 20
-97.959261
 30
0.0
 10
121.110192
 20
-98.139602
 30
0.0
 10
120.810470
 20
-98.264062
 30
0.0
 10
120.703790
 20
-98.284382
 30
0.0
 10
120.490429
 20
-98.327563
 30
0.0
 10
120.165308
 20
-98.327563
 30
0.0
 10
119.951947
 20
-98.284382
 30
0.0
 10
119.845267
 20
-98.264062
 30
0.0
 10
119.545546
 20
-98.139602
 30
0.0
 10
119.276305
 20
-97.959261
 30
0.0
 10
119.045164
 20
-97.728120
 30
0.0
 10
118.864823
 20
-97.458879
 30
0.0
 10
118.740363
 20
-97.156618
 30
0.0
 10
118.676862
 20
-96.839117
 30
0.0
 10
118.676862
 20
-96.513996
 30
0.0
 10
118.740363
 20
-96.193955
 30
0.0
 10
118.864823
 20
-95.894234
 30
0.0
 10
119.045164
 20
-95.622453
 30
0.0
 10
119.276305
 20
-95.393852
 30
0.0
 10
119.545546
 20
-95.213511
 30
0.0
 10
119.845267
 20
-95.089051
 30
0.0
 10
119.951947
 20
-95.066190
 30
0.0
 10
120.165308
 20
-95.025550
 30
0.0
 10
120.490429
 20
-95.025550
 30
0.0
 10
120.703790
 20
-95.066190
 30
0.0
  0
LWPOLYLINE
  5
101
100
AcDbEntity
  8
0
 62
7
100
AcDbPolyline
 90
37
 70
1
 10
221.907927
 20
-95.066190
 30
0.0
 10
222.012068
 20
-95.089051
 30
0.0
 10
222.314329
 20
-95.213511
 30
0.0
 10
222.583570
 20
-95.393852
 30
0.0
 10
222.814711
 20
-95.622453
 30
0.0
 10
222.995051
 20
-95.894234
 30
0.0
 10
223.119512
 20
-96.193955
 30
0.0
 10
223.183012
 20
-96.513996
 30
0.0
 10
223.183012
 20
-96.839117
 30
0.0
 10
223.119512
 20
-97.156618
 30
0.0
 10
222.995051
 20
-97.458879
 30
0.0
 10
222.814711
 20
-97.728120
 30
0.0
 10
222.583570
 20
-97.959261
 30
0.0
 10
222.314329
 20
-98.139602
 30
0.0
 10
222.012068
 20
-98.264062
 30
0.0
 10
221.907927
 20
-98.284382
 30
0.0
 10
221.694567
 20
-98.327563
 30
0.0
 10
221.369445
 20
-98.327563
 30
0.0
 10
221.156085
 20
-98.284382
 30
0.0
 10
221.049404
 20
-98.264062
 30
0.0
 10
220.749683
 20
-98.139602
 30
0.0
 10
220.480442
 20
-97.959261
 30
0.0
 10
220.249301
 20
-97.728120
 30
0.0
 10
220.068960
 20
-97.458879
 30
0.0
 10
219.944500
 20
-97.156618
 30
0.0
 10
219.881000
 20
-96.839117
 30
0.0
 10
219.881000
 20
-96.513996
 30
0.0
 10
219.944500
 20
-96.193955
 30
0.0
 10
220.068960
 20
-95.894234
 30
0.0
 10
220.249301
 20
-95.622453
 30
0.0
 10
220.480442
 20
-95.393852
 30
0.0
 10
220.749683
 20
-95.213511
 30
0.0
 10
221.049404
 20
-95.089051
 30
0.0
 10
221.156085
 20
-95.066190
 30
0.0
 10
221.369445
 20
-95.025550
 30
0.0
 10
221.694567
 20
-95.025550
 30
0.0
 10
221.907927
 20
-95.066190
 30
0.0
  0
LWPOLYLINE
  5
102
100
AcDbEntity
  8
0
 62
7
100
AcDbPolyline
 90
37
 70
1
 10
19.499653
 20
-95.066190
 30
0.0
 10
19.606333
 20
-95.089051
 30
0.0
 10
19.906054
 20
-95.213511
 30
0.0
 10
20.175295
 20
-95.393852
 30
0.0
 10
20.406436
 20
-95.622453
 30
0.0
 10
20.586777
 20
-95.894234
 30
0.0
 10
20.711237
 20
-96.193955
 30
0.0
 10
20.774737
 20
-96.513996
 30
0.0
 10
20.774737
 20
-96.839117
 30
0.0
 10
20.711237
 20
-97.156618
 30
0.0
 10
20.586777
 20
-97.458879
 30
0.0
 10
20.406436
 20
-97.728120
 30
0.0
 10
20.175295
 20
-97.959261
 30
0.0
 10
19.906054
 20
-98.139602
 30
0.0
 10
19.606333
 20
-98.264062
 30
0.0
 10
19.499653
 20
-98.284382
 30
0.0
 10
19.286292
 20
-98.327563
 30
0.0
 10
18.961171
 20
-98.327563
 30
0.0
 10
18.747810
 20
-98.284382
 30
0.0
 10
18.641129
 20
-98.264062
 30
0.0
 10
18.341408
 20
-98.139602
 30
0.0
 10
18.072167
 20
-97.959261
 30
0.0
 10
17.841027
 20
-97.728120
 30
0.0
 10
17.660686
 20
-97.458879
 30
0.0
 10
17.536225
 20
-97.156618
 30
0.0
 10
17.472725
 20
-96.839117
 30
0.0
 10
17.472725
 20
-96.513996
 30
0.0
 10
17.536225
 20
-96.193955
 30
0.0
 10
17.660686
 20
-95.894234
 30
0.0
 10
17.841027
 20
-95.622453
 30
0.0
 10
18.072167
 20
-95.393852
 30
0.0
 10
18.341408
 20
-95.213511
 30
0.0
 10
18.641129
 20
-95.089051
 30
0.0
 10
18.747810
 20
-95.066190
 30
0.0
 10
18.961171
 20
-95.025550
 30
0.0
 10
19.286292
 20
-95.025550
 30
0.0
 10
19.499653
 20
-95.066190
 30
0.0
  0
LWPOLYLINE
  5
103
100
AcDbEntity
  8
0
 62
7
100
AcDbPolyline
 90
37
 70
1
 10
231.432963
 20
-6.960882
 30
0.0
 10
231.539643
 20
-6.981202
 30
0.0
 10
231.839364
 20
-7.105662
 30
0.0
 10
232.108605
 20
-7.286003
 30
0.0
 10
232.339746
 20
-7.517144
 30
0.0
 10
232.520087
 20
-7.786385
 30
0.0
 10
232.644547
 20
-8.086106
 30
0.0
 10
232.708048
 20
-8.406147
 30
0.0
 10
232.708048
 20
-8.731269
 30
0.0
 10
232.644547
 20
-9.051310
 30
0.0
 10
232.520087
 20
-9.351031
 30
0.0
 10
232.339746
 20
-9.620272
 30
0.0
 10
232.108605
 20
-9.851413
 30
0.0
 10
231.839364
 20
-10.031753
 30
0.0
 10
231.539643
 20
-10.156214
 30
0.0
 10
231.432963
 20
-10.176534
 30
0.0
 10
231.219602
 20
-10.219714
 30
0.0
 10
230.894481
 20
-10.219714
 30
0.0
 10
230.681120
 20
-10.176534
 30
0.0
 10
230.574440
 20
-10.156214
 30
0.0
 10
230.274719
 20
-10.031753
 30
0.0
 10
230.005478
 20
-9.851413
 30
0.0
 10
229.774337
 20
-9.620272
 30
0.0
 10
229.593996
 20
-9.351031
 30
0.0
 10
229.469536
 20
-9.051310
 30
0.0
 10
229.406035
 20
-8.731269
 30
0.0
 10
229.406035
 20
-8.406147
 30
0.0
 10
229.469536
 20
-8.086106
 30
0.0
 10
229.593996
 20
-7.786385
 30
0.0
 10
229.774337
 20
-7.517144
 30
0.0
 10
230.005478
 20
-7.286003
 30
0.0
 10
230.274719
 20
-7.105662
 30
0.0
 10
230.574440
 20
-6.981202
 30
0.0
 10
230.681120
 20
-6.960882
 30
0.0
 10
230.894481
 20
-6.917702
 30
0.0
 10
231.219602
 20
-6.917702
 30
0.0
 10
231.432963
 20
-6.960882
 30
0.0
  0
LWPOLYLINE
  5
104
100
AcDbEntity
  8
0
 62
7
100
AcDbPolyline
 90
37
 70
1
 10
120.703790
 20
-6.960882
 30
0.0
 10
120.810470
 20
-6.981202
 30
0.0
 10
121.110192
 20
-7.105662
 30
0.0
 10
121.379433
 20
-7.286003
 30
0.0
 10
121.610573
 20
-7.517144
 30
0.0
 10
121.790914
 20
-7.786385
 30
0.0
 10
121.915375
 20
-8.086106
 30
0.0
 10
121.978875
 20
-8.406147
 30
0.0
 10
121.978875
 20
-8.731269
 30
0.0
 10
121.915375
 20
-9.051310
 30
0.0
 10
121.790914
 20
-9.351031
 30
0.0
 10
121.610573
 20
-9.620272
 30
0.0
 10
121.379433
 20
-9.851413
 30
0.0
 10
121.110192
 20
-10.031753
 30
0.0
 10
120.810470
 20
-10.156214
 30
0.0
 10
120.703790
 20
-10.176534
 30
0.0
 10
120.490429
 20
-10.219714
 30
0.0
 10
120.165308
 20
-10.219714
 30
0.0
 10
119.951947
 20
-10.176534
 30
0.0
 10
119.845267
 20
-10.156214
 30
0.0
 10
119.545546
 20
-10.031753
 30
0.0
 10
119.276305
 20
-9.851413
 30
0.0
 10
119.045164
 20
-9.620272
 30
0.0
 10
118.864823
 20
-9.351031
 30
0.0
 10
118.740363
 20
-9.051310
 30
0.0
 10
118.676862
 20
-8.731269
 30
0.0
 10
118.676862
 20
-8.406147
 30
0.0
 10
118.740363
 20
-8.086106
 30
0.0
 10
118.864823
 20
-7.786385
 30
0.0
 10
119.045164
 20
-7.517144
 30
0.0
 10
119.276305
 20
-7.286003
 30
0.0
 10
119.545546
 20
-7.105662
 30
0.0
 10
119.845267
 20
-6.981202
 30
0.0
 10
119.951947
 20
-6.960882
 30
0.0
 10
120.165308
 20
-6.917702
 30
0.0
 10
120.490429
 20
-6.917702
 30
0.0
 10
120.703790
 20
-6.960882
 30
0.0
  0
LWPOLYLINE
  5
105
100
AcDbEntity
  8
0
 62
7
100
AcDbPolyline
 90
37
 70
1
 10
9.974617
 20
-6.960882
 30
0.0
 10
10.081298
 20
-6.981202
 30
0.0
 10
10.381019
 20
-7.105662
 30
0.0
 10
10.650260
 20
-7.286003
 30
0.0
 10
10.881401
 20
-7.517144
 30
0.0
 10
11.061741
 20
-7.786385
 30
0.0
 10
11.186202
 20
-8.086106
 30
0.0
 10
11.249702
 20
-8.406147
 30
0.0
 10
11.249702
 20
-8.731269
 30
0.0
 10
11.186202
 20
-9.051310
 30
0.0
 10
11.061741
 20
-9.351031
 30
0.0
 10
10.881401
 20
-9.620272
 30
0.0
 10
10.650260
 20
-9.851413
 30
0.0
 10
10.381019
 20
-10.031753
 30
0.0
 10
10.081298
 20
-10.156214
 30
0.0
 10
9.974617
 20
-10.176534
 30
0.0
 10
9.761256
 20
-10.219714
 30
0.0
 10
9.436135
 20
-10.219714
 30
0.0
 10
9.222774
 20
-10.176534
 30
0.0
 10
9.116094
 20
-10.156214
 30
0.0
 10
8.816373
 20
-10.031753
 30
0.0
 10
8.547132
 20
-9.851413
 30
0.0
 10
8.315991
 20
-9.620272
 30
0.0
 10
8.135650
 20
-9.351031
 30
0.0
 10
8.011190
 20
-9.051310
 30
0.0
 10
7.947690
 20
-8.731269
 30
0.0
 10
7.947690
 20
-8.406147
 30
0.0
 10
8.011190
 20
-8.086106
 30
0.0
 10
8.135650
 20
-7.786385
 30
0.0
 10
8.315991
 20
-7.517144
 30
0.0
 10
8.547132
 20
-7.286003
 30
0.0
 10
8.816373
 20
-7.105662
 30
0.0
 10
9.116094
 20
-6.981202
 30
0.0
 10
9.222774
 20
-6.960882
 30
0.0
 10
9.436135
 20
-6.917702
 30
0.0
 10
9.761256
 20
-6.917702
 30
0.0
 10
9.974617
 20
-6.960882
 30
0.0
  0
LWPOLYLINE
  5
106
100
AcDbEntity
  8
0
 62
7
100
AcDbPolyline
 90
2
 70
0
 10
216.769488
 20
-72.863968
 30
0.0
 10
226.294524
 20
-72.863968
 30
0.0
  0
SPLINE
  5
107
100
AcDbEntity
  8
0
 62
7
100
AcDbSpline
 70
8
 71
3
 72
8
 73
4
 74
0
 40
0
 40
0
 40
0
 40
0
 40
1
 40
1
 40
1
 40
1
 10
241.773849
 20
-2.616907
 30
0.0
 10
241.773844
 20
-1.669562
 30
0.0
 10
241.397502
 20
-0.761022
 30
0.0
 10
240.727617
 20
-0.091160
 30
0.0
  0
SPLINE
  5
108
100
AcDbEntity
  8
0
 62
7
100
AcDbSpline
 70
8
 71
3
 72
8
 73
4
 74
0
 40
0
 40
0
 40
0
 40
0
 40
1
 40
1
 40
1
 40
1
 10
240.727617
 20
-0.091160
 30
0.0
 10
240.057732
 20
0.578703
 30
0.0
 10
239.149179
 20
0.955013
 30
0.0
 10
238.201834
 20
0.954986
 30
0.0
  0
LWPOLYLINE
  5
109
100
AcDbEntity
  8
0
 62
7
100
AcDbPolyline
 90
2
 70
0
 10
14.361214
 20
-72.863968
 30
0.0
 10
23.886249
 20
-72.863968
 30
0.0
  0
SPLINE
  5
10a
100
AcDbEntity
  8
0
 62
7
100
AcDbSpline
 70
8
 71
3
 72
8
 73
4
 74
0
 40
0
 40
0
 40
0
 40
0
 40
1
 40
1
 40
1
 40
1
 10
238.201834
 20
-106.202100
 30
0.0
 10
239.149200
 20
-106.202127
 30
0.0
 10
240.057771
 20
-105.825799
 30
0.0
 10
240.727660
 20
-105.155911
 30
0.0
  0
SPLINE
  5
10b
100
AcDbEntity
  8
0
 62
7
100
AcDbSpline
 70
8
 71
3
 72
8
 73
4
 74
0
 40
0
 40
0
 40
0
 40
0
 40
1
 40
1
 40
1
 40
1
 10
240.727660
 20
-105.155911
 30
0.0
 10
241.397549
 20
-104.486022
 30
0.0
 10
241.773876
 20
-103.577450
 30
0.0
 10
241.773849
 20
-102.630085
 30
0.0
  0
LWPOLYLINE
  5
10c
100
AcDbEntity
  8
0
 62
7
100
AcDbPolyline
 90
2
 70
0
 10
3.644914
 20
0.956328
 30
0.0
 10
208.435717
 20
0.956328
 30
0.0
  0
LWPOLYLINE
  5
10d
100
AcDbEntity
  8
0
 62
7
100
AcDbPolyline
 90
2
 70
0
 10
23.886249
 20
-91.914039
 30
0.0
 10
216.769488
 20
-91.914039
 30
0.0
  0
SPLINE
  5
10e
100
AcDbEntity
  8
0
 62
7
100
AcDbSpline
 70
8
 71
3
 72
8
 73
4
 74
0
 40
0
 40
0
 40
0
 40
0
 40
1
 40
1
 40
1
 40
1
 10
3.646895
 20
0.954986
 30
0.0
 10
1.674197
 20
0.954975
 30
0.0
 10
0.075013
 20
-0.644209
 30
0.0
 10
0.075001
 20
-2.616907
 30
0.0
  0
SPLINE
  5
10f
100
AcDbEntity
  8
0
 62
7
100
AcDbSpline
 70
8
 71
3
 72
8
 73
4
 74
0
 40
0
 40
0
 40
0
 40
0
 40
1
 40
1
 40
1
 40
1
 10
0.075001
 20
-102.630085
 30
0.0
 10
0.074974
 20
-103.577429
 30
0.0
 10
0.451285
 20
-104.485982
 30
0.0
 10
1.121148
 20
-105.155868
 30
0.0
  0
SPLINE
  5
110
100
AcDbEntity
  8
0
 62
7
100
AcDbSpline
 70
8
 71
3
 72
8
 73
4
 74
0
 40
0
 40
0
 40
0
 40
0
 40
1
 40
1
 40
1
 40
1
 10
1.121148
 20
-105.155868
 30
0.0
 10
1.791010
 20
-105.825753
 30
0.0
 10
2.699550
 20
-106.202095
 30
0.0
 10
3.646895
 20
-106.202100
 30
0.0
  0
LWPOLYLINE
  5
111
100
AcDbEntity
  8
0
 62
7
100
AcDbPolyline
 90
2
 70
0
 10
14.361214
 20
-13.331226
 30
0.0
 10
208.435717
 20
-13.331226
 30
0.0
  0
LWPOLYLINE
  5
112
100
AcDbEntity
  8
0
 62
7
100
AcDbPolyline
 90
2
 70
0
 10
241.773341
 20
-2.614926
 30
0.0
 10
241.773341
 20
-102.627799
 30
0.0
  0
LWPOLYLINE
  5
113
100
AcDbEntity
  8
0
 62
7
100
AcDbPolyline
 90
2
 70
0
 10
208.435717
 20
-13.331226
 30
0.0
 10
226.294524
 20
-13.331226
 30
0.0
  0
LWPOLYLINE
  5
114
100
AcDbEntity
  8
0
 62
7
100
AcDbPolyline
 90
2
 70
0
 10
14.361214
 20
-13.331226
 30
0.0
 10
14.361214
 20
-72.863968
 30
0.0
  0
LWPOLYLINE
  5
115
100
AcDbEntity
  8
0
 62
7
100
AcDbPolyline
 90
2
 70
0
 10
226.294524
 20
-13.331226
 30
0.0
 10
226.294524
 20
-72.863968
 30
0.0
  0
LWPOLYLINE
  5
116
100
AcDbEntity
  8
0
 62
7
100
AcDbPolyline
 90
2
 70
0
 10
208.435717
 20
0.956328
 30
0.0
 10
238.199548
 20
0.956328
 30
0.0
  0
LWPOLYLINE
  5
117
100
AcDbEntity
  8
0
 62
7
100
AcDbPolyline
 90
2
 70
0
 10
3.644914
 20
-106.201592
 30
0.0
 10
238.199548
 20
-106.201592
 30
0.0
  0
LWPOLYLINE
  5
118
100
AcDbEntity
  8
0
 62
7
100
AcDbPolyline
 90
2
 70
0
 10
0.073660
 20
-2.614926
 30
0.0
 10
0.073660
 20
-102.627799
 30
0.0
  0
LWPOLYLINE
  5
119
100
AcDbEntity
  8
0
 62
7
100
AcDbPolyline
 90
2
 70
0
 10
216.769488
 20
-91.914039
 30
0.0
 10
216.769488
 20
-72.863968
 30
0.0
  0
LWPOLYLINE
  5
11a
100
AcDbEntity
  8
0
 62
7
100
AcDbPolyline
 90
2
 70
0
 10
23.886249
 20
-91.914039
 30
0.0
 10
23.886249
 20
-72.863968
 30
0.0
  0
ENDSEC
  0
SECTION
  2
OBJECTS
  0
DICTIONARY
  5
C
330
0
100
AcDbDictionary
  3
ACAD_GROUP
350
D
  3
ACAD_MLINESTYLE
350
17
  0
DICTIONARY
  5
D
330
C
100
AcDbDictionary
  0
DICTIONARY
  5
1A
330
C
100
AcDbDictionary
  0
DICTIONARY
  5
17
330
C
100
AcDbDictionary
  3
STANDARD
350
18
  0
DICTIONARY
  5
19
330
C
100
AcDbDictionary
  0
ENDSEC
  0
EOF
