  0
SECTION
  2
HEADER
  9
$ACADVER
  1
AC1014
  9
$HANDSEED
  5
FFFF
  9
$MEASUREMENT
 70
     1
  0
ENDSEC
  0
SECTION
  2
TABLES
  0
TABLE
  2
VPORT
  5
8
330
0
100
AcDbSymbolTable
 70
     4
  0
VPORT
  5
2E
330
8
100
AcDbSymbolTableRecord
100
AcDbViewportTableRecord
  2
*ACTIVE
 70
     0
 10
0.0
 20
0.0
 11
1.0
 21
1.0
 12
210.0
 22
148.5
 13
0.0
 23
0.0
 14
10.0
 24
10.0
 15
10.0
 25
10.0
 16
0.0
 26
0.0
 36
1.0
 17
0.0
 27
0.0
 37
0.0
 40
341.0
 41
1.24
 42
50.0
 43
0.0
 44
0.0
 50
0.0
 51
0.0
 71
     0
 72
   100
 73
     1
 74
     3
 75
     0
 76
     0
 77
     0
 78
     0
  0
ENDTAB
  0
TABLE
  2
LTYPE
  5
5
330
0
100
AcDbSymbolTable
 70
     1
  0
LTYPE
  5
14
330
5
100
AcDbSymbolTableRecord
100
AcDbLinetypeTableRecord
  2
BYBLOCK
 70
     0
  3

 72
    65
 73
     0
 40
0.0
  0
LTYPE
  5
15
330
5
100
AcDbSymbolTableRecord
100
AcDbLinetypeTableRecord
  2
BYLAYER
 70
     0
  3

 72
    65
 73
     0
 40
0.0
  0
LTYPE
  5
16
330
5
100
AcDbSymbolTableRecord
100
AcDbLinetypeTableRecord
  2
CONTINUOUS
 70
     0
  3
Solid line
 72
    65
 73
     0
 40
0.0
  0
ENDTAB
  0
TABLE
  2
LAYER
  5
2
100
AcDbSymbolTable
 70
1
  0
LAYER
  5
50
100
AcDbSymbolTableRecord
100
AcDbLayerTableRecord
  2
0
 70
0
  6
CONTINUOUS
  0
ENDTAB
  0
TABLE
  2
STYLE
  5
3
330
0
100
AcDbSymbolTable
 70
     1
  0
STYLE
  5
11
330
3
100
AcDbSymbolTableRecord
100
AcDbTextStyleTableRecord
  2
STANDARD
 70
     0
 40
0.0
 41
1.0
 50
0.0
 71
     0
 42
2.5
  3
txt
  4

  0
ENDTAB
  0
TABLE
  2
VIEW
  5
6
330
0
100
AcDbSymbolTable
 70
     0
  0
ENDTAB
  0
TABLE
  2
UCS
  5
7
330
0
100
AcDbSymbolTable
 70
     0
  0
ENDTAB
  0
TABLE
  2
APPID
  5
9
330
0
100
AcDbSymbolTable
 70
     2
  0
APPID
  5
12
330
9
100
AcDbSymbolTableRecord
100
AcDbRegAppTableRecord
  2
ACAD
 70
     0
  0
ENDTAB
  0
TABLE
  2
DIMSTYLE
  5
A
330
0
100
AcDbSymbolTable
 70
     1
  0
DIMSTYLE
105
27
330
A
100
AcDbSymbolTableRecord
100
AcDbDimStyleTableRecord
  2
ISO-25
 70
     0
  3

  4

  5

  6

  7

 40
1.0
 41
2.5
 42
0.625
 43
3.75
 44
1.25
 45
0.0
 46
0.0
 47
0.0
 48
0.0
140
2.5
141
2.5
142
0.0
143
0.03937007874016
144
1.0
145
0.0
146
1.0
147
0.625
 71
     0
 72
     0
 73
     0
 74
     0
 75
     0
 76
     0
 77
     1
 78
     8
170
     0
171
     3
172
     1
173
     0
174
     0
175
     0
176
     0
177
     0
178
     0
270
     2
271
     2
272
     2
273
     2
274
     3
340
11
275
     0
280
     0
281
     0
282
     0
283
     0
284
     8
285
     0
286
     0
287
     3
288
     0
  0
ENDTAB
  0
TABLE
  2
BLOCK_RECORD
  5
1
330
0
100
AcDbSymbolTable
 70
     1
  0
BLOCK_RECORD
  5
1F
330
1
100
AcDbSymbolTableRecord
100
AcDbBlockTableRecord
  2
*MODEL_SPACE
  0
BLOCK_RECORD
  5
1B
330
1
100
AcDbSymbolTableRecord
100
AcDbBlockTableRecord
  2
*PAPER_SPACE
  0
ENDTAB
  0
ENDSEC
  0
SECTION
  2
BLOCKS
  0
BLOCK
  5
20
330
1F
100
AcDbEntity
  8
0
100
AcDbBlockBegin
  2
*MODEL_SPACE
 70
     0
 10
0.0
 20
0.0
 30
0.0
  3
*MODEL_SPACE
  1

  0
ENDBLK
  5
21
330
1F
100
AcDbEntity
  8
0
100
AcDbBlockEnd
  0
BLOCK
  5
1C
330
1B
100
AcDbEntity
 67
     1
  8
0
100
AcDbBlockBegin
  2
*PAPER_SPACE
  1

  0
ENDBLK
  5
1D
330
1B
100
AcDbEntity
 67
     1
  8
0
100
AcDbBlockEnd
  0
ENDSEC
  0
SECTION
  2
ENTITIES
  0
LWPOLYLINE
  5
100
100
AcDbEntity
  8
0
 62
7
100
AcDbPolyline
 90
37
 70
1
 10
215.953340
 20
-89.231277
 30
0.0
 10
216.060020
 20
-89.254137
 30
0.0
 10
216.359740
 20
-89.378597
 30
0.0
 10
216.628980
 20
-89.558937
 30
0.0
 10
216.860120
 20
-89.787537
 30
0.0
 10
217.040460
 20
-90.059317
 30
0.0
 10
217.164920
 20
-90.359037
 30
0.0
 10
217.228420
 20
-90.679077
 30
0.0
 10
217.228420
 20
-91.004197
 30
0.0
 10
217.164920
 20
-91.321697
 30
0.0
 10
217.040460
 20
-91.621417
 30
0.0
 10
216.860120
 20
-91.893197
 30
0.0
 10
216.628980
 20
-92.121797
 30
0.0
 10
216.359740
 20
-92.304677
 30
0.0
 10
216.060020
 20
-92.429137
 30
0.0
 10
215.953340
 20
-92.449457
 30
0.0
 10
215.739980
 20
-92.492637
 30
0.0
 10
215.414860
 20
-92.492637
 30
0.0
 10
215.201500
 20
-92.449457
 30
0.0
 10
215.097360
 20
-92.429137
 30
0.0
 10
214.795100
 20
-92.304677
 30
0.0
 10
214.525860
 20
-92.121797
 30
0.0
 10
214.294720
 20
-91.893197
 30
0.0
 10
214.114380
 20
-91.621417
 30
0.0
 10
213.989920
 20
-91.321697
 30
0.0
 10
213.926420
 20
-91.004197
 30
0.0
 10
213.926420
 20
-90.679077
 30
0.0
 10
213.989920
 20
-90.359037
 30
0.0
 10
214.114380
 20
-90.059317
 30
0.0
 10
214.294720
 20
-89.787537
 30
0.0
 10
214.525860
 20
-89.558937
 30
0.0
 10
214.795100
 20
-89.378597
 30
0.0
 10
215.097360
 20
-89.254137
 30
0.0
 10
215.201500
 20
-89.231277
 30
0.0
 10
215.414860
 20
-89.190637
 30
0.0
 10
215.739980
 20
-89.190637
 30
0.0
 10
215.953340
 20
-89.231277
 30
0.0
  0
LWPOLYLINE
  5
101
100
AcDbEntity
  8
0
 62
7
100
AcDbPolyline
 90
37
 70
1
 10
114.749580
 20
-89.231277
 30
0.0
 10
114.856260
 20
-89.254137
 30
0.0
 10
115.155980
 20
-89.378597
 30
0.0
 10
115.427760
 20
-89.558937
 30
0.0
 10
115.656360
 20
-89.787537
 30
0.0
 10
115.836700
 20
-90.059317
 30
0.0
 10
115.961160
 20
-90.359037
 30
0.0
 10
116.024660
 20
-90.679077
 30
0.0
 10
116.024660
 20
-91.004197
 30
0.0
 10
115.961160
 20
-91.321697
 30
0.0
 10
115.836700
 20
-91.621417
 30
0.0
 10
115.656360
 20
-91.893197
 30
0.0
 10
115.427760
 20
-92.121797
 30
0.0
 10
115.155980
 20
-92.304677
 30
0.0
 10
114.856260
 20
-92.429137
 30
0.0
 10
114.749580
 20
-92.449457
 30
0.0
 10
114.536220
 20
-92.492637
 30
0.0
 10
114.211100
 20
-92.492637
 30
0.0
 10
113.997740
 20
-92.449457
 30
0.0
 10
113.893600
 20
-92.429137
 30
0.0
 10
113.591340
 20
-92.304677
 30
0.0
 10
113.322100
 20
-92.121797
 30
0.0
 10
113.090960
 20
-91.893197
 30
0.0
 10
112.910620
 20
-91.621417
 30
0.0
 10
112.786160
 20
-91.321697
 30
0.0
 10
112.722660
 20
-91.004197
 30
0.0
 10
112.722660
 20
-90.679077
 30
0.0
 10
112.786160
 20
-90.359037
 30
0.0
 10
112.910620
 20
-90.059317
 30
0.0
 10
113.090960
 20
-89.787537
 30
0.0
 10
113.322100
 20
-89.558937
 30
0.0
 10
113.591340
 20
-89.378597
 30
0.0
 10
113.893600
 20
-89.254137
 30
0.0
 10
113.997740
 20
-89.231277
 30
0.0
 10
114.211100
 20
-89.190637
 30
0.0
 10
114.536220
 20
-89.190637
 30
0.0
 10
114.749580
 20
-89.231277
 30
0.0
  0
LWPOLYLINE
  5
102
100
AcDbEntity
  8
0
 62
7
100
AcDbPolyline
 90
37
 70
1
 10
13.545820
 20
-89.231277
 30
0.0
 10
13.652500
 20
-89.254137
 30
0.0
 10
13.952220
 20
-89.378597
 30
0.0
 10
14.224000
 20
-89.558937
 30
0.0
 10
14.452600
 20
-89.787537
 30
0.0
 10
14.632940
 20
-90.059317
 30
0.0
 10
14.757400
 20
-90.359037
 30
0.0
 10
14.820900
 20
-90.679077
 30
0.0
 10
14.820900
 20
-91.004197
 30
0.0
 10
14.757400
 20
-91.321697
 30
0.0
 10
14.632940
 20
-91.621417
 30
0.0
 10
14.452600
 20
-91.893197
 30
0.0
 10
14.224000
 20
-92.121797
 30
0.0
 10
13.952220
 20
-92.304677
 30
0.0
 10
13.652500
 20
-92.429137
 30
0.0
 10
13.545820
 20
-92.449457
 30
0.0
 10
13.332460
 20
-92.492637
 30
0.0
 10
13.007340
 20
-92.492637
 30
0.0
 10
12.796520
 20
-92.449457
 30
0.0
 10
12.689840
 20
-92.429137
 30
0.0
 10
12.387580
 20
-92.304677
 30
0.0
 10
12.118340
 20
-92.121797
 30
0.0
 10
11.887200
 20
-91.893197
 30
0.0
 10
11.706860
 20
-91.621417
 30
0.0
 10
11.582400
 20
-91.321697
 30
0.0
 10
11.518900
 20
-91.004197
 30
0.0
 10
11.518900
 20
-90.679077
 30
0.0
 10
11.582400
 20
-90.359037
 30
0.0
 10
11.706860
 20
-90.059317
 30
0.0
 10
11.887200
 20
-89.787537
 30
0.0
 10
12.118340
 20
-89.558937
 30
0.0
 10
12.387580
 20
-89.378597
 30
0.0
 10
12.689840
 20
-89.254137
 30
0.0
 10
12.796520
 20
-89.231277
 30
0.0
 10
13.007340
 20
-89.190637
 30
0.0
 10
13.332460
 20
-89.190637
 30
0.0
 10
13.545820
 20
-89.231277
 30
0.0
  0
LWPOLYLINE
  5
103
100
AcDbEntity
  8
0
 62
7
100
AcDbPolyline
 90
37
 70
1
 10
225.478340
 20
-1.126297
 30
0.0
 10
225.585020
 20
-1.146617
 30
0.0
 10
225.884740
 20
-1.271077
 30
0.0
 10
226.156520
 20
-1.451417
 30
0.0
 10
226.385120
 20
-1.682557
 30
0.0
 10
226.565460
 20
-1.951797
 30
0.0
 10
226.689920
 20
-2.251517
 30
0.0
 10
226.753420
 20
-2.571557
 30
0.0
 10
226.753420
 20
-2.896677
 30
0.0
 10
226.689920
 20
-3.216717
 30
0.0
 10
226.565460
 20
-3.516437
 30
0.0
 10
226.385120
 20
-3.785677
 30
0.0
 10
226.156520
 20
-4.016817
 30
0.0
 10
225.884740
 20
-4.197157
 30
0.0
 10
225.585020
 20
-4.321617
 30
0.0
 10
225.478340
 20
-4.341937
 30
0.0
 10
225.264980
 20
-4.385117
 30
0.0
 10
224.939860
 20
-4.385117
 30
0.0
 10
224.726500
 20
-4.341937
 30
0.0
 10
224.622360
 20
-4.321617
 30
0.0
 10
224.320100
 20
-4.197157
 30
0.0
 10
224.050860
 20
-4.016817
 30
0.0
 10
223.819720
 20
-3.785677
 30
0.0
 10
223.639380
 20
-3.516437
 30
0.0
 10
223.514920
 20
-3.216717
 30
0.0
 10
223.451420
 20
-2.896677
 30
0.0
 10
223.451420
 20
-2.571557
 30
0.0
 10
223.514920
 20
-2.251517
 30
0.0
 10
223.639380
 20
-1.951797
 30
0.0
 10
223.819720
 20
-1.682557
 30
0.0
 10
224.050860
 20
-1.451417
 30
0.0
 10
224.320100
 20
-1.271077
 30
0.0
 10
224.622360
 20
-1.146617
 30
0.0
 10
224.726500
 20
-1.126297
 30
0.0
 10
224.939860
 20
-1.083117
 30
0.0
 10
225.264980
 20
-1.083117
 30
0.0
 10
225.478340
 20
-1.126297
 30
0.0
  0
LWPOLYLINE
  5
104
100
AcDbEntity
  8
0
 62
7
100
AcDbPolyline
 90
37
 70
1
 10
114.749580
 20
-1.126297
 30
0.0
 10
114.856260
 20
-1.146617
 30
0.0
 10
115.155980
 20
-1.271077
 30
0.0
 10
115.427760
 20
-1.451417
 30
0.0
 10
115.656360
 20
-1.682557
 30
0.0
 10
115.836700
 20
-1.951797
 30
0.0
 10
115.961160
 20
-2.251517
 30
0.0
 10
116.024660
 20
-2.571557
 30
0.0
 10
116.024660
 20
-2.896677
 30
0.0
 10
115.961160
 20
-3.216717
 30
0.0
 10
115.836700
 20
-3.516437
 30
0.0
 10
115.656360
 20
-3.785677
 30
0.0
 10
115.427760
 20
-4.016817
 30
0.0
 10
115.155980
 20
-4.197157
 30
0.0
 10
114.856260
 20
-4.321617
 30
0.0
 10
114.749580
 20
-4.341937
 30
0.0
 10
114.536220
 20
-4.385117
 30
0.0
 10
114.211100
 20
-4.385117
 30
0.0
 10
113.997740
 20
-4.341937
 30
0.0
 10
113.893600
 20
-4.321617
 30
0.0
 10
113.591340
 20
-4.197157
 30
0.0
 10
113.322100
 20
-4.016817
 30
0.0
 10
113.090960
 20
-3.785677
 30
0.0
 10
112.910620
 20
-3.516437
 30
0.0
 10
112.786160
 20
-3.216717
 30
0.0
 10
112.722660
 20
-2.896677
 30
0.0
 10
112.722660
 20
-2.571557
 30
0.0
 10
112.786160
 20
-2.251517
 30
0.0
 10
112.910620
 20
-1.951797
 30
0.0
 10
113.090960
 20
-1.682557
 30
0.0
 10
113.322100
 20
-1.451417
 30
0.0
 10
113.591340
 20
-1.271077
 30
0.0
 10
113.893600
 20
-1.146617
 30
0.0
 10
113.997740
 20
-1.126297
 30
0.0
 10
114.211100
 20
-1.083117
 30
0.0
 10
114.536220
 20
-1.083117
 30
0.0
 10
114.749580
 20
-1.126297
 30
0.0
  0
LWPOLYLINE
  5
105
100
AcDbEntity
  8
0
 62
7
100
AcDbPolyline
 90
37
 70
1
 10
4.020820
 20
-1.126297
 30
0.0
 10
4.127500
 20
-1.146617
 30
0.0
 10
4.427220
 20
-1.271077
 30
0.0
 10
4.699000
 20
-1.451417
 30
0.0
 10
4.927600
 20
-1.682557
 30
0.0
 10
5.107940
 20
-1.951797
 30
0.0
 10
5.232400
 20
-2.251517
 30
0.0
 10
5.295900
 20
-2.571557
 30
0.0
 10
5.295900
 20
-2.896677
 30
0.0
 10
5.232400
 20
-3.216717
 30
0.0
 10
5.107940
 20
-3.516437
 30
0.0
 10
4.927600
 20
-3.785677
 30
0.0
 10
4.699000
 20
-4.016817
 30
0.0
 10
4.427220
 20
-4.197157
 30
0.0
 10
4.127500
 20
-4.321617
 30
0.0
 10
4.020820
 20
-4.341937
 30
0.0
 10
3.807460
 20
-4.385117
 30
0.0
 10
3.482340
 20
-4.385117
 30
0.0
 10
3.271520
 20
-4.341937
 30
0.0
 10
3.164840
 20
-4.321617
 30
0.0
 10
2.862580
 20
-4.197157
 30
0.0
 10
2.593340
 20
-4.016817
 30
0.0
 10
2.362200
 20
-3.785677
 30
0.0
 10
2.181860
 20
-3.516437
 30
0.0
 10
2.057400
 20
-3.216717
 30
0.0
 10
1.993900
 20
-2.896677
 30
0.0
 10
1.993900
 20
-2.571557
 30
0.0
 10
2.057400
 20
-2.251517
 30
0.0
 10
2.181860
 20
-1.951797
 30
0.0
 10
2.362200
 20
-1.682557
 30
0.0
 10
2.593340
 20
-1.451417
 30
0.0
 10
2.862580
 20
-1.271077
 30
0.0
 10
3.164840
 20
-1.146617
 30
0.0
 10
3.271520
 20
-1.126297
 30
0.0
 10
3.482340
 20
-1.083117
 30
0.0
 10
3.807460
 20
-1.083117
 30
0.0
 10
4.020820
 20
-1.126297
 30
0.0
  0
LWPOLYLINE
  5
106
100
AcDbEntity
  8
0
 62
7
100
AcDbPolyline
 90
2
 70
0
 10
3.644900
 20
-72.980357
 30
0.0
 10
9.598660
 20
-72.980357
 30
0.0
  0
LWPOLYLINE
  5
107
100
AcDbEntity
  8
0
 62
7
100
AcDbPolyline
 90
2
 70
0
 10
219.148660
 20
-90.841637
 30
0.0
 10
219.148660
 20
-74.171617
 30
0.0
  0
LWPOLYLINE
  5
108
100
AcDbEntity
  8
0
 62
7
100
AcDbPolyline
 90
2
 70
0
 10
114.373660
 20
-94.412877
 30
0.0
 10
215.577420
 20
-94.412877
 30
0.0
  0
LWPOLYLINE
  5
109
100
AcDbEntity
  8
0
 62
7
100
AcDbPolyline
 90
2
 70
0
 10
114.373660
 20
-94.412877
 30
0.0
 10
13.169900
 20
-94.412877
 30
0.0
  0
LWPOLYLINE
  5
10a
100
AcDbEntity
  8
0
 62
7
100
AcDbPolyline
 90
2
 70
0
 10
219.148660
 20
-74.171617
 30
0.0
 10
226.293680
 20
-74.171617
 30
0.0
  0
SPLINE
  5
10b
100
AcDbEntity
  8
0
 62
7
100
AcDbSpline
 70
8
 71
3
 72
8
 73
4
 74
0
 40
0
 40
0
 40
0
 40
0
 40
1
 40
1
 40
1
 40
1
 10
3.650615
 20
0.840862
 30
0.0
 10
1.677919
 20
0.840859
 30
0.0
 10
0.078731
 20
-0.758322
 30
0.0
 10
0.078720
 20
-2.731018
 30
0.0
  0
LWPOLYLINE
  5
10c
100
AcDbEntity
  8
0
 62
7
100
AcDbPolyline
 90
2
 70
0
 10
9.598660
 20
-90.841637
 30
0.0
 10
9.598660
 20
-72.980357
 30
0.0
  0
LWPOLYLINE
  5
10d
100
AcDbEntity
  8
0
 62
7
100
AcDbPolyline
 90
2
 70
0
 10
114.373660
 20
0.837123
 30
0.0
 10
3.644900
 20
0.837123
 30
0.0
  0
LWPOLYLINE
  5
10e
100
AcDbEntity
  8
0
 62
7
100
AcDbPolyline
 90
2
 70
0
 10
0.073660
 20
-2.734117
 30
0.0
 10
0.078740
 20
-69.409117
 30
0.0
  0
LWPOLYLINE
  5
10f
100
AcDbEntity
  8
0
 62
7
100
AcDbPolyline
 90
2
 70
0
 10
229.864920
 20
-2.734117
 30
0.0
 10
229.864920
 20
-70.600377
 30
0.0
  0
SPLINE
  5
110
100
AcDbEntity
  8
0
 62
7
100
AcDbSpline
 70
8
 71
3
 72
8
 73
4
 74
0
 40
0
 40
0
 40
0
 40
0
 40
1
 40
1
 40
1
 40
1
 10
229.866698
 20
-2.735285
 30
0.0
 10
229.866697
 20
-1.787942
 30
0.0
 10
229.490358
 20
-0.879400
 30
0.0
 10
228.820475
 20
-0.209537
 30
0.0
  0
SPLINE
  5
111
100
AcDbEntity
  8
0
 62
7
100
AcDbSpline
 70
8
 71
3
 72
8
 73
4
 74
0
 40
0
 40
0
 40
0
 40
0
 40
1
 40
1
 40
1
 40
1
 10
228.820475
 20
-0.209537
 30
0.0
 10
228.150592
 20
0.460326
 30
0.0
 10
227.242040
 20
0.836638
 30
0.0
 10
226.294696
 20
0.836611
 30
0.0
  0
SPLINE
  5
112
100
AcDbEntity
  8
0
 62
7
100
AcDbSpline
 70
8
 71
3
 72
8
 73
4
 74
0
 40
0
 40
0
 40
0
 40
0
 40
1
 40
1
 40
1
 40
1
 10
215.578944
 20
-94.413893
 30
0.0
 10
216.526306
 20
-94.413920
 30
0.0
 10
217.434874
 20
-94.037594
 30
0.0
 10
218.104761
 20
-93.367708
 30
0.0
  0
SPLINE
  5
113
100
AcDbEntity
  8
0
 62
7
100
AcDbSpline
 70
8
 71
3
 72
8
 73
4
 74
0
 40
0
 40
0
 40
0
 40
0
 40
1
 40
1
 40
1
 40
1
 10
218.104761
 20
-93.367708
 30
0.0
 10
218.774647
 20
-92.697821
 30
0.0
 10
219.150973
 20
-91.789253
 30
0.0
 10
219.150946
 20
-90.841891
 30
0.0
  0
SPLINE
  5
114
100
AcDbEntity
  8
0
 62
7
100
AcDbSpline
 70
8
 71
3
 72
8
 73
4
 74
0
 40
0
 40
0
 40
0
 40
0
 40
1
 40
1
 40
1
 40
1
 10
9.600032
 20
-90.841891
 30
0.0
 10
9.600005
 20
-91.789235
 30
0.0
 10
9.976317
 20
-92.697788
 30
0.0
 10
10.646181
 20
-93.367672
 30
0.0
  0
SPLINE
  5
115
100
AcDbEntity
  8
0
 62
7
100
AcDbSpline
 70
8
 71
3
 72
8
 73
4
 74
0
 40
0
 40
0
 40
0
 40
0
 40
1
 40
1
 40
1
 40
1
 10
10.646181
 20
-93.367672
 30
0.0
 10
11.316045
 20
-94.037555
 30
0.0
 10
12.224588
 20
-94.413893
 30
0.0
 10
13.171932
 20
-94.413893
 30
0.0
  0
SPLINE
  5
116
100
AcDbEntity
  8
0
 62
7
100
AcDbSpline
 70
8
 71
3
 72
8
 73
4
 74
0
 40
0
 40
0
 40
0
 40
0
 40
1
 40
1
 40
1
 40
1
 10
0.075001
 20
-69.410641
 30
0.0
 10
0.075085
 20
-71.383280
 30
0.0
 10
1.674243
 20
-72.982378
 30
0.0
 10
3.646881
 20
-72.982389
 30
0.0
  0
SPLINE
  5
117
100
AcDbEntity
  8
0
 62
7
100
AcDbSpline
 70
8
 71
3
 72
8
 73
4
 74
0
 40
0
 40
0
 40
0
 40
0
 40
1
 40
1
 40
1
 40
1
 10
226.294696
 20
-74.173141
 30
0.0
 10
227.242058
 20
-74.173168
 30
0.0
 10
228.150626
 20
-73.796842
 30
0.0
 10
228.820513
 20
-73.126956
 30
0.0
  0
SPLINE
  5
118
100
AcDbEntity
  8
0
 62
7
100
AcDbSpline
 70
8
 71
3
 72
8
 73
4
 74
0
 40
0
 40
0
 40
0
 40
0
 40
1
 40
1
 40
1
 40
1
 10
228.820513
 20
-73.126956
 30
0.0
 10
229.490399
 20
-72.457069
 30
0.0
 10
229.866725
 20
-71.548501
 30
0.0
 10
229.866698
 20
-70.601139
 30
0.0
  0
LWPOLYLINE
  5
119
100
AcDbEntity
  8
0
 62
7
100
AcDbPolyline
 90
2
 70
0
 10
114.373660
 20
0.837123
 30
0.0
 10
226.293680
 20
0.837123
 30
0.0
  0
ENDSEC
  0
SECTION
  2
OBJECTS
  0
DICTIONARY
  5
C
330
0
100
AcDbDictionary
  3
ACAD_GROUP
350
D
  3
ACAD_MLINESTYLE
350
17
  0
DICTIONARY
  5
D
330
C
100
AcDbDictionary
  0
DICTIONARY
  5
1A
330
C
100
AcDbDictionary
  0
DICTIONARY
  5
17
330
C
100
AcDbDictionary
  3
STANDARD
350
18
  0
DICTIONARY
  5
19
330
C
100
AcDbDictionary
  0
ENDSEC
  0
EOF
