<?xml version="1.0" standalone="no"?>
 <!DOCTYPE svg PUBLIC "-//W3C//DTD SVG 1.1//EN" 
 "http://www.w3.org/Graphics/SVG/1.1/DTD/svg11.dtd"> 
<svg xmlns="http://www.w3.org/2000/svg" version="1.1" 
    width="78.9534cm" height="39.7815cm" viewBox="0 0 310840 156620 ">
<title>SVG Picture created as packrat40_v5-brd.svg date 2021/03/18 13:22:35 </title>
  <desc>Picture generated by PCBNEW </desc>
<g style="fill:#000000; fill-opacity:1;stroke:#000000; stroke-opacity:1;
stroke-linecap:round; stroke-linejoin:round; "
 transform="translate(0 0) scale(1 1)">
</g>
<g style="fill:#000000; fill-opacity:0.0; 
stroke:#000000; stroke-width:-0.000393701; stroke-opacity:1; 
stroke-linecap:round; stroke-linejoin:round;">
</g>
<g style="fill:#000000; fill-opacity:1.0; 
stroke:#000000; stroke-width:0; stroke-opacity:1; 
stroke-linecap:round; stroke-linejoin:round;">
<path style="fill:#000000; fill-opacity:1.0; 
stroke:#000000; stroke-width:0; stroke-opacity:1; 
stroke-linecap:round; stroke-linejoin:round;fill-rule:evenodd;"
d="M 223303,91741
223345,91750
223463,91799
223569,91870
223660,91960
223731,92067
223780,92185
223805,92311
223805,92439
223780,92564
223731,92683
223660,92789
223569,92880
223463,92951
223345,93000
223303,93008
223219,93025
223091,93025
223007,93008
222965,93000
222847,92951
222741,92880
222650,92789
222579,92683
222530,92564
222505,92439
222505,92311
222530,92185
222579,92067
222650,91960
222741,91870
222847,91799
222965,91750
223007,91741
223091,91725
223219,91725
223303,91741
Z" /> 
<path style="fill:#000000; fill-opacity:1.0; 
stroke:#000000; stroke-width:0; stroke-opacity:1; 
stroke-linecap:round; stroke-linejoin:round;fill-rule:evenodd;"
d="M 87365,91741
87406,91750
87525,91799
87631,91870
87722,91960
87793,92067
87842,92185
87867,92311
87867,92439
87842,92564
87793,92683
87722,92789
87631,92880
87525,92951
87406,93000
87365,93008
87281,93025
87153,93025
87069,93008
87027,93000
86909,92951
86803,92880
86712,92789
86641,92683
86592,92564
86567,92439
86567,92311
86592,92185
86641,92067
86712,91960
86803,91870
86909,91799
87027,91750
87069,91741
87153,91725
87281,91725
87365,91741
Z" /> 
<path style="fill:#000000; fill-opacity:1.0; 
stroke:#000000; stroke-width:0; stroke-opacity:1; 
stroke-linecap:round; stroke-linejoin:round;fill-rule:evenodd;"
d="M 150646,91741
150688,91750
150806,91799
150913,91870
151003,91960
151074,92067
151123,92185
151148,92311
151148,92439
151123,92564
151074,92683
151003,92789
150913,92880
150806,92951
150688,93000
150646,93008
150562,93025
150434,93025
150351,93008
150309,93000
150191,92951
150084,92880
149994,92789
149922,92683
149873,92564
149848,92439
149848,92311
149873,92185
149922,92067
149994,91960
150084,91870
150191,91799
150309,91750
150351,91741
150434,91725
150562,91725
150646,91741
Z" /> 
<path style="fill:#000000; fill-opacity:1.0; 
stroke:#000000; stroke-width:0; stroke-opacity:1; 
stroke-linecap:round; stroke-linejoin:round;fill-rule:evenodd;"
d="M 7677,91741
7719,91750
7837,91799
7943,91870
8034,91960
8105,92067
8154,92185
8179,92311
8179,92439
8154,92564
8105,92683
8034,92789
7943,92880
7837,92951
7719,93000
7677,93008
7593,93025
7465,93025
7381,93008
7339,93000
7221,92951
7115,92880
7024,92789
6953,92683
6904,92564
6879,92439
6879,92311
6904,92185
6953,92067
7024,91960
7115,91870
7221,91799
7339,91750
7381,91741
7465,91725
7593,91725
7677,91741
Z" /> 
<path style="fill:#000000; fill-opacity:1.0; 
stroke:#000000; stroke-width:0; stroke-opacity:1; 
stroke-linecap:round; stroke-linejoin:round;fill-rule:evenodd;"
d="M 263147,91741
263188,91750
263307,91799
263413,91870
263504,91960
263575,92067
263624,92185
263649,92311
263649,92439
263624,92564
263575,92683
263504,92789
263413,92880
263307,92951
263188,93000
263147,93008
263063,93025
262935,93025
262851,93008
262809,93000
262691,92951
262585,92880
262494,92789
262423,92683
262374,92564
262349,92439
262349,92311
262374,92185
262423,92067
262494,91960
262585,91870
262691,91799
262809,91750
262851,91741
262935,91725
263063,91725
263147,91741
Z" /> 
<path style="fill:#000000; fill-opacity:1.0; 
stroke:#000000; stroke-width:0; stroke-opacity:1; 
stroke-linecap:round; stroke-linejoin:round;fill-rule:evenodd;"
d="M 47521,91741
47563,91750
47681,91799
47787,91870
47878,91960
47949,92067
47998,92185
48023,92311
48023,92439
47998,92564
47949,92683
47878,92789
47787,92880
47681,92951
47563,93000
47521,93008
47437,93025
47309,93025
47225,93008
47183,93000
47065,92951
46959,92880
46868,92789
46797,92683
46748,92564
46723,92439
46723,92311
46748,92185
46797,92067
46868,91960
46959,91870
47065,91799
47183,91750
47225,91741
47309,91725
47437,91725
47521,91741
Z" /> 
<path style="fill:#000000; fill-opacity:1.0; 
stroke:#000000; stroke-width:0; stroke-opacity:1; 
stroke-linecap:round; stroke-linejoin:round;fill-rule:evenodd;"
d="M 110802,91741
110844,91750
110962,91799
111069,91870
111159,91960
111231,92067
111280,92185
111304,92311
111304,92439
111280,92564
111231,92683
111159,92789
111069,92880
110962,92951
110844,93000
110802,93008
110719,93025
110590,93025
110507,93008
110465,93000
110347,92951
110240,92880
110150,92789
110078,92683
110029,92564
110004,92439
110004,92311
110029,92185
110078,92067
110150,91960
110240,91870
110347,91799
110465,91750
110507,91741
110590,91725
110719,91725
110802,91741
Z" /> 
<path style="fill:#000000; fill-opacity:1.0; 
stroke:#000000; stroke-width:0; stroke-opacity:1; 
stroke-linecap:round; stroke-linejoin:round;fill-rule:evenodd;"
d="M 190490,91741
190532,91750
190650,91799
190757,91870
190847,91960
190918,92067
190967,92185
190992,92311
190992,92439
190967,92564
190918,92683
190847,92789
190757,92880
190650,92951
190532,93000
190490,93008
190406,93025
190278,93025
190195,93008
190153,93000
190034,92951
189928,92880
189837,92789
189766,92683
189717,92564
189692,92439
189692,92311
189717,92185
189766,92067
189837,91960
189928,91870
190034,91799
190153,91750
190195,91741
190278,91725
190406,91725
190490,91741
Z" /> 
<path style="fill:#000000; fill-opacity:1.0; 
stroke:#000000; stroke-width:0; stroke-opacity:1; 
stroke-linecap:round; stroke-linejoin:round;fill-rule:evenodd;"
d="M 302991,91741
303032,91750
303151,91799
303257,91870
303348,91960
303419,92067
303468,92185
303493,92311
303493,92439
303468,92564
303419,92683
303348,92789
303257,92880
303151,92951
303032,93000
302991,93008
302907,93025
302779,93025
302695,93008
302653,93000
302535,92951
302428,92880
302338,92789
302267,92683
302218,92564
302193,92439
302193,92311
302218,92185
302267,92067
302338,91960
302428,91870
302535,91799
302653,91750
302695,91741
302779,91725
302907,91725
302991,91741
Z" /> 
<path style="fill:#000000; fill-opacity:1.0; 
stroke:#000000; stroke-width:0; stroke-opacity:1; 
stroke-linecap:round; stroke-linejoin:round;fill-rule:evenodd;"
d="M 306741,57054
306782,57062
306901,57111
307007,57182
307098,57273
307169,57379
307218,57498
307243,57623
307243,57751
307218,57877
307169,57995
307098,58102
307007,58192
306901,58263
306782,58312
306741,58321
306657,58337
306529,58337
306445,58321
306403,58312
306285,58263
306178,58192
306088,58102
306017,57995
305968,57877
305943,57751
305943,57623
305968,57498
306017,57379
306088,57273
306178,57182
306285,57111
306403,57062
306445,57054
306529,57037
306657,57037
306741,57054
Z" /> 
<path style="fill:#000000; fill-opacity:1.0; 
stroke:#000000; stroke-width:0; stroke-opacity:1; 
stroke-linecap:round; stroke-linejoin:round;fill-rule:evenodd;"
d="M 3927,57054
3969,57062
4087,57111
4193,57182
4284,57273
4355,57379
4404,57498
4429,57623
4429,57751
4404,57877
4355,57995
4284,58102
4193,58192
4087,58263
3969,58312
3927,58321
3843,58337
3715,58337
3631,58321
3589,58312
3471,58263
3365,58192
3274,58102
3203,57995
3154,57877
3129,57751
3129,57623
3154,57498
3203,57379
3274,57273
3365,57182
3471,57111
3589,57062
3631,57054
3715,57037
3843,57037
3927,57054
Z" /> 
<path style="fill:#000000; fill-opacity:1.0; 
stroke:#000000; stroke-width:0; stroke-opacity:1; 
stroke-linecap:round; stroke-linejoin:round;fill-rule:evenodd;"
d="M 91115,57054
91157,57062
91275,57111
91381,57182
91472,57273
91543,57379
91592,57498
91617,57623
91617,57751
91592,57877
91543,57995
91472,58102
91381,58192
91275,58263
91157,58312
91115,58321
91031,58337
90903,58337
90819,58321
90777,58312
90659,58263
90553,58192
90462,58102
90391,57995
90342,57877
90317,57751
90317,57623
90342,57498
90391,57379
90462,57273
90553,57182
90659,57111
90777,57062
90819,57054
90903,57037
91031,57037
91115,57054
Z" /> 
<path style="fill:#000000; fill-opacity:1.0; 
stroke:#000000; stroke-width:0; stroke-opacity:1; 
stroke-linecap:round; stroke-linejoin:round;fill-rule:evenodd;"
d="M 263147,57054
263188,57062
263307,57111
263413,57182
263504,57273
263575,57379
263624,57498
263649,57623
263649,57751
263624,57877
263575,57995
263504,58102
263413,58192
263307,58263
263188,58312
263147,58321
263063,58337
262935,58337
262851,58321
262809,58312
262691,58263
262585,58192
262494,58102
262423,57995
262374,57877
262349,57751
262349,57623
262374,57498
262423,57379
262494,57273
262585,57182
262691,57111
262809,57062
262851,57054
262935,57037
263063,57037
263147,57054
Z" /> 
<path style="fill:#000000; fill-opacity:1.0; 
stroke:#000000; stroke-width:0; stroke-opacity:1; 
stroke-linecap:round; stroke-linejoin:round;fill-rule:evenodd;"
d="M 47521,57054
47563,57062
47681,57111
47787,57182
47878,57273
47949,57379
47998,57498
48023,57623
48023,57751
47998,57877
47949,57995
47878,58102
47787,58192
47681,58263
47563,58312
47521,58321
47437,58337
47309,58337
47225,58321
47183,58312
47065,58263
46959,58192
46868,58102
46797,57995
46748,57877
46723,57751
46723,57623
46748,57498
46797,57379
46868,57273
46959,57182
47065,57111
47183,57062
47225,57054
47309,57037
47437,57037
47521,57054
Z" /> 
<path style="fill:#000000; fill-opacity:1.0; 
stroke:#000000; stroke-width:0; stroke-opacity:1; 
stroke-linecap:round; stroke-linejoin:round;fill-rule:evenodd;"
d="M 219553,57054
219595,57062
219713,57111
219819,57182
219910,57273
219981,57379
220030,57498
220055,57623
220055,57751
220030,57877
219981,57995
219910,58102
219819,58192
219713,58263
219595,58312
219553,58321
219469,58337
219341,58337
219257,58321
219215,58312
219097,58263
218991,58192
218900,58102
218829,57995
218780,57877
218755,57751
218755,57623
218780,57498
218829,57379
218900,57273
218991,57182
219097,57111
219215,57062
219257,57054
219341,57037
219469,57037
219553,57054
Z" /> 
<path style="fill:#000000; fill-opacity:1.0; 
stroke:#000000; stroke-width:0; stroke-opacity:1; 
stroke-linecap:round; stroke-linejoin:round;fill-rule:evenodd;"
d="M 107052,57054
107094,57062
107212,57111
107319,57182
107409,57273
107480,57379
107529,57498
107554,57623
107554,57751
107529,57877
107480,57995
107409,58102
107319,58192
107212,58263
107094,58312
107052,58321
106968,58337
106840,58337
106757,58321
106715,58312
106597,58263
106490,58192
106400,58102
106328,57995
106279,57877
106254,57751
106254,57623
106279,57498
106328,57379
106400,57273
106490,57182
106597,57111
106715,57062
106757,57054
106840,57037
106968,57037
107052,57054
Z" /> 
<path style="fill:#000000; fill-opacity:1.0; 
stroke:#000000; stroke-width:0; stroke-opacity:1; 
stroke-linecap:round; stroke-linejoin:round;fill-rule:evenodd;"
d="M 150646,57054
150688,57062
150806,57111
150913,57182
151003,57273
151074,57379
151123,57498
151148,57623
151148,57751
151123,57877
151074,57995
151003,58102
150913,58192
150806,58263
150688,58312
150646,58321
150562,58337
150434,58337
150351,58321
150309,58312
150191,58263
150084,58192
149994,58102
149922,57995
149873,57877
149848,57751
149848,57623
149873,57498
149922,57379
149994,57273
150084,57182
150191,57111
150309,57062
150351,57054
150434,57037
150562,57037
150646,57054
Z" /> 
<path style="fill:#000000; fill-opacity:1.0; 
stroke:#000000; stroke-width:0; stroke-opacity:1; 
stroke-linecap:round; stroke-linejoin:round;fill-rule:evenodd;"
d="M 194240,57054
194282,57062
194400,57111
194507,57182
194597,57273
194668,57379
194717,57498
194742,57623
194742,57751
194717,57877
194668,57995
194597,58102
194507,58192
194400,58263
194282,58312
194240,58321
194156,58337
194028,58337
193945,58321
193903,58312
193784,58263
193678,58192
193587,58102
193516,57995
193467,57877
193442,57751
193442,57623
193467,57498
193516,57379
193587,57273
193678,57182
193784,57111
193903,57062
193945,57054
194028,57037
194156,57037
194240,57054
Z" /> 
<path style="fill:#000000; fill-opacity:1.0; 
stroke:#000000; stroke-width:0; stroke-opacity:1; 
stroke-linecap:round; stroke-linejoin:round;fill-rule:evenodd;"
d="M 302991,40179
303032,40187
303151,40236
303257,40307
303348,40398
303419,40504
303468,40623
303493,40748
303493,40876
303468,41002
303419,41120
303348,41226
303257,41317
303151,41388
303032,41437
302991,41445
302907,41462
302779,41462
302695,41445
302653,41437
302535,41388
302428,41317
302338,41226
302267,41120
302218,41002
302193,40876
302193,40748
302218,40623
302267,40504
302338,40398
302428,40307
302535,40236
302653,40187
302695,40179
302779,40162
302907,40162
302991,40179
Z" /> 
<path style="fill:#000000; fill-opacity:1.0; 
stroke:#000000; stroke-width:0; stroke-opacity:1; 
stroke-linecap:round; stroke-linejoin:round;fill-rule:evenodd;"
d="M 263147,40179
263188,40187
263307,40236
263413,40307
263504,40398
263575,40504
263624,40623
263649,40748
263649,40876
263624,41002
263575,41120
263504,41226
263413,41317
263307,41388
263188,41437
263147,41445
263063,41462
262935,41462
262851,41445
262809,41437
262691,41388
262585,41317
262494,41226
262423,41120
262374,41002
262349,40876
262349,40748
262374,40623
262423,40504
262494,40398
262585,40307
262691,40236
262809,40187
262851,40179
262935,40162
263063,40162
263147,40179
Z" /> 
<path style="fill:#000000; fill-opacity:1.0; 
stroke:#000000; stroke-width:0; stroke-opacity:1; 
stroke-linecap:round; stroke-linejoin:round;fill-rule:evenodd;"
d="M 223303,40179
223345,40187
223463,40236
223569,40307
223660,40398
223731,40504
223780,40623
223805,40748
223805,40876
223780,41002
223731,41120
223660,41226
223569,41317
223463,41388
223345,41437
223303,41445
223219,41462
223091,41462
223007,41445
222965,41437
222847,41388
222741,41317
222650,41226
222579,41120
222530,41002
222505,40876
222505,40748
222530,40623
222579,40504
222650,40398
222741,40307
222847,40236
222965,40187
223007,40179
223091,40162
223219,40162
223303,40179
Z" /> 
<path style="fill:#000000; fill-opacity:1.0; 
stroke:#000000; stroke-width:0; stroke-opacity:1; 
stroke-linecap:round; stroke-linejoin:round;fill-rule:evenodd;"
d="M 110802,35491
110844,35500
110962,35549
111069,35620
111159,35710
111231,35817
111280,35935
111304,36061
111304,36189
111280,36314
111231,36432
111159,36539
111069,36629
110962,36701
110844,36750
110802,36758
110719,36775
110590,36775
110507,36758
110465,36750
110347,36701
110240,36629
110150,36539
110078,36432
110029,36314
110004,36189
110004,36061
110029,35935
110078,35817
110150,35710
110240,35620
110347,35549
110465,35500
110507,35491
110590,35475
110719,35475
110802,35491
Z" /> 
<path style="fill:#000000; fill-opacity:1.0; 
stroke:#000000; stroke-width:0; stroke-opacity:1; 
stroke-linecap:round; stroke-linejoin:round;fill-rule:evenodd;"
d="M 190490,35491
190532,35500
190650,35549
190757,35620
190847,35710
190918,35817
190967,35935
190992,36061
190992,36189
190967,36314
190918,36432
190847,36539
190757,36629
190650,36701
190532,36750
190490,36758
190406,36775
190278,36775
190195,36758
190153,36750
190034,36701
189928,36629
189837,36539
189766,36432
189717,36314
189692,36189
189692,36061
189717,35935
189766,35817
189837,35710
189928,35620
190034,35549
190153,35500
190195,35491
190278,35475
190406,35475
190490,35491
Z" /> 
<path style="fill:#000000; fill-opacity:1.0; 
stroke:#000000; stroke-width:0; stroke-opacity:1; 
stroke-linecap:round; stroke-linejoin:round;fill-rule:evenodd;"
d="M 150646,35491
150688,35500
150806,35549
150913,35620
151003,35710
151074,35817
151123,35935
151148,36061
151148,36189
151123,36314
151074,36432
151003,36539
150913,36629
150806,36701
150688,36750
150646,36758
150562,36775
150434,36775
150351,36758
150309,36750
150191,36701
150084,36629
149994,36539
149922,36432
149873,36314
149848,36189
149848,36061
149873,35935
149922,35817
149994,35710
150084,35620
150191,35549
150309,35500
150351,35491
150434,35475
150562,35475
150646,35491
Z" /> 
<path style="fill:#000000; fill-opacity:1.0; 
stroke:#000000; stroke-width:0; stroke-opacity:1; 
stroke-linecap:round; stroke-linejoin:round;fill-rule:evenodd;"
d="M 219553,5491
219595,5499
219713,5548
219819,5620
219910,5710
219981,5817
220030,5935
220055,6060
220055,6188
220030,6314
219981,6432
219910,6539
219819,6629
219713,6700
219595,6749
219553,6758
219469,6774
219341,6774
219257,6758
219215,6749
219097,6700
218991,6629
218900,6539
218829,6432
218780,6314
218755,6188
218755,6060
218780,5935
218829,5817
218900,5710
218991,5620
219097,5548
219215,5499
219257,5491
219341,5474
219469,5474
219553,5491
Z" /> 
<path style="fill:#000000; fill-opacity:1.0; 
stroke:#000000; stroke-width:0; stroke-opacity:1; 
stroke-linecap:round; stroke-linejoin:round;fill-rule:evenodd;"
d="M 263147,5491
263188,5499
263307,5548
263413,5620
263504,5710
263575,5817
263624,5935
263649,6060
263649,6188
263624,6314
263575,6432
263504,6539
263413,6629
263307,6700
263188,6749
263147,6758
263063,6774
262935,6774
262851,6758
262809,6749
262691,6700
262585,6629
262494,6539
262423,6432
262374,6314
262349,6188
262349,6060
262374,5935
262423,5817
262494,5710
262585,5620
262691,5548
262809,5499
262851,5491
262935,5474
263063,5474
263147,5491
Z" /> 
<path style="fill:#000000; fill-opacity:1.0; 
stroke:#000000; stroke-width:0; stroke-opacity:1; 
stroke-linecap:round; stroke-linejoin:round;fill-rule:evenodd;"
d="M 306741,5491
306782,5499
306901,5548
307007,5620
307098,5710
307169,5817
307218,5935
307243,6060
307243,6188
307218,6314
307169,6432
307098,6539
307007,6629
306901,6700
306782,6749
306741,6758
306657,6774
306529,6774
306445,6758
306403,6749
306285,6700
306178,6629
306088,6539
306017,6432
305968,6314
305943,6188
305943,6060
305968,5935
306017,5817
306088,5710
306178,5620
306285,5548
306403,5499
306445,5491
306529,5474
306657,5474
306741,5491
Z" /> 
<path style="fill:#000000; fill-opacity:1.0; 
stroke:#000000; stroke-width:0; stroke-opacity:1; 
stroke-linecap:round; stroke-linejoin:round;fill-rule:evenodd;"
d="M 150646,804
150688,812
150806,861
150913,932
151003,1023
151074,1129
151123,1247
151148,1373
151148,1501
151123,1627
151074,1745
151003,1851
150913,1942
150806,2013
150688,2062
150646,2070
150562,2087
150434,2087
150351,2070
150309,2062
150191,2013
150084,1942
149994,1851
149922,1745
149873,1627
149848,1501
149848,1373
149873,1247
149922,1129
149994,1023
150084,932
150191,861
150309,812
150351,804
150434,787
150562,787
150646,804
Z" /> 
<path style="fill:#000000; fill-opacity:1.0; 
stroke:#000000; stroke-width:0; stroke-opacity:1; 
stroke-linecap:round; stroke-linejoin:round;fill-rule:evenodd;"
d="M 194240,804
194282,812
194400,861
194507,932
194597,1023
194668,1129
194717,1247
194742,1373
194742,1501
194717,1627
194668,1745
194597,1851
194507,1942
194400,2013
194282,2062
194240,2070
194156,2087
194028,2087
193945,2070
193903,2062
193784,2013
193678,1942
193587,1851
193516,1745
193467,1627
193442,1501
193442,1373
193467,1247
193516,1129
193587,1023
193678,932
193784,861
193903,812
193945,804
194028,787
194156,787
194240,804
Z" /> 
<path style="fill:#000000; fill-opacity:1.0; 
stroke:#000000; stroke-width:0; stroke-opacity:1; 
stroke-linecap:round; stroke-linejoin:round;fill-rule:evenodd;"
d="M 107052,804
107094,812
107212,861
107319,932
107409,1023
107480,1129
107529,1247
107554,1373
107554,1501
107529,1627
107480,1745
107409,1851
107319,1942
107212,2013
107094,2062
107052,2070
106968,2087
106840,2087
106757,2070
106715,2062
106597,2013
106490,1942
106400,1851
106328,1745
106279,1627
106254,1501
106254,1373
106279,1247
106328,1129
106400,1023
106490,932
106597,861
106715,812
106757,804
106840,787
106968,787
107052,804
Z" /> 
</g>
<g style="fill:#000000; fill-opacity:1.0; 
stroke:#000000; stroke-width:59.0551; stroke-opacity:1; 
stroke-linecap:round; stroke-linejoin:round;">
</g>
<g style="fill:#000000; fill-opacity:0.0; 
stroke:#000000; stroke-width:59.0551; stroke-opacity:1; 
stroke-linecap:round; stroke-linejoin:round;">
<path d="M221749 40812
L221749 33781
" />
</g>
<g style="fill:#000000; fill-opacity:0.0; 
stroke:#000000; stroke-width:78.7402; stroke-opacity:1; 
stroke-linecap:round; stroke-linejoin:round;">
<path d="M155281 25247
L160714 25247
" />
<path d="M183214 19814
L183214 25247
" />
<path d="M160714 4814
L155281 4814
" />
<path d="M170281 10247
L170281 4814
" />
</g>
<g style="fill:#000000; fill-opacity:0.0; 
stroke:#000000; stroke-width:59.0551; stroke-opacity:1; 
stroke-linecap:round; stroke-linejoin:round;">
<path d="M219407 4717.05 A1406.26 1406.26 0.0 0 0 218001 6123.3 " />
<path d="M262999 42218
L302843 42218
" />
<path d="M304249 40812
L304249 34250
" />
<path d="M262999 42218
L223155 42218
" />
<path d="M304249 34250
L307062 34250
" />
<path d="M219405 33781
L221749 33781
" />
<path d="M262999 4718
L219405 4718
" />
<path d="M308468 6124.98 A1406.26 1406.26 0.0 0 0 307062 4718.72 " />
<path d="M302843 42218.9 A1406.26 1406.26 0.0 0 0 304250 40812.6 " />
<path d="M308468 6124
L308468 32843
" />
<path d="M262999 4718
L307062 4718
" />
<path d="M221749 40812.6 A1406.26 1406.26 0.0 0 0 223155 42218.9 " />
<path d="M307062 34250.1 A1406.26 1406.26 0.0 0 0 308468 32843.8 " />
</g>
<g style="fill:#000000; fill-opacity:0.0; 
stroke:#000000; stroke-width:78.7402; stroke-opacity:1; 
stroke-linecap:round; stroke-linejoin:round;">
<path d="M160714 4814
L160714 10247
" />
</g>
<g style="fill:#000000; fill-opacity:0.0; 
stroke:#000000; stroke-width:59.0551; stroke-opacity:1; 
stroke-linecap:round; stroke-linejoin:round;">
<path d="M217999 6124
L218001 32375
" />
<path d="M217999 32375.1 A1406.26 1406.26 0.0 0 0 219405 33781.3 " />
</g>
<g style="fill:#000000; fill-opacity:0.0; 
stroke:#000000; stroke-width:78.7402; stroke-opacity:1; 
stroke-linecap:round; stroke-linejoin:round;">
<path d="M183214 4814
L177781 4814
" />
</g>
<g style="fill:#000000; fill-opacity:0.0; 
stroke:#000000; stroke-width:59.0551; stroke-opacity:1; 
stroke-linecap:round; stroke-linejoin:round;">
<path d="M191749 36125
L191749 29562
" />
</g>
<g style="fill:#000000; fill-opacity:0.0; 
stroke:#000000; stroke-width:78.7402; stroke-opacity:1; 
stroke-linecap:round; stroke-linejoin:round;">
<path d="M170281 25247
L175714 25247
" />
</g>
<g style="fill:#000000; fill-opacity:0.0; 
stroke:#000000; stroke-width:59.0551; stroke-opacity:1; 
stroke-linecap:round; stroke-linejoin:round;">
<path d="M106906 29.528 A1406.26 1406.26 0.0 0 0 105500 1435.78 " />
</g>
<g style="fill:#000000; fill-opacity:0.0; 
stroke:#000000; stroke-width:78.7402; stroke-opacity:1; 
stroke-linecap:round; stroke-linejoin:round;">
<path d="M181531 32747
L186964 32747
" />
<path d="M177781 25247
L177781 19814
" />
<path d="M177781 25247
L183214 25247
" />
<path d="M138214 19814
L132781 19814
" />
<path d="M155281 10247
L160714 10247
" />
</g>
<g style="fill:#000000; fill-opacity:0.0; 
stroke:#000000; stroke-width:59.0551; stroke-opacity:1; 
stroke-linecap:round; stroke-linejoin:round;">
<path d="M109248 36125
L109248 29093
" />
</g>
<g style="fill:#000000; fill-opacity:0.0; 
stroke:#000000; stroke-width:78.7402; stroke-opacity:1; 
stroke-linecap:round; stroke-linejoin:round;">
<path d="M185281 10247
L185281 4814
" />
<path d="M140281 25247
L140281 19814
" />
<path d="M159032 32747
L186965 32747
" />
<path d="M164464 27314
L159031 27314
" />
<path d="M162781 25247
L162781 19814
" />
<path d="M155281 10247
L155281 4814
" />
<path d="M183214 19814
L177781 19814
" />
<path d="M147782 4814
L147781 25247
" />
</g>
<g style="fill:#000000; fill-opacity:0.0; 
stroke:#000000; stroke-width:59.0551; stroke-opacity:1; 
stroke-linecap:round; stroke-linejoin:round;">
<path d="M191749 29562
L194561 29562
" />
</g>
<g style="fill:#000000; fill-opacity:0.0; 
stroke:#000000; stroke-width:78.7402; stroke-opacity:1; 
stroke-linecap:round; stroke-linejoin:round;">
<path d="M140281 25247
L145714 25247
" />
</g>
<g style="fill:#000000; fill-opacity:0.0; 
stroke:#000000; stroke-width:59.0551; stroke-opacity:1; 
stroke-linecap:round; stroke-linejoin:round;">
<path d="M150498 31
L106904 31
" />
<path d="M106904 29093
L109248 29093
" />
</g>
<g style="fill:#000000; fill-opacity:0.0; 
stroke:#000000; stroke-width:78.7402; stroke-opacity:1; 
stroke-linecap:round; stroke-linejoin:round;">
<path d="M175714 19814
L175714 25247
" />
<path d="M138214 12314
L132781 12314
" />
<path d="M160714 19814
L160714 25247
" />
<path d="M110281 10247
L110281 4814
" />
</g>
<g style="fill:#000000; fill-opacity:0.0; 
stroke:#000000; stroke-width:59.0551; stroke-opacity:1; 
stroke-linecap:round; stroke-linejoin:round;">
<path d="M150498 31
L194561 31
" />
</g>
<g style="fill:#000000; fill-opacity:0.0; 
stroke:#000000; stroke-width:78.7402; stroke-opacity:1; 
stroke-linecap:round; stroke-linejoin:round;">
<path d="M170281 10247
L175714 10247
" />
<path d="M186964 27314
L186964 32747
" />
<path d="M153214 19814
L153214 25247
" />
<path d="M162781 10247
L168214 10247
" />
<path d="M153215 4814
L153214 25247
" />
<path d="M130714 19814
L130714 25247
" />
</g>
<g style="fill:#000000; fill-opacity:0.0; 
stroke:#000000; stroke-width:59.0551; stroke-opacity:1; 
stroke-linecap:round; stroke-linejoin:round;">
<path d="M105498 1437
L105500 27687
" />
<path d="M195967 1437
L195967 28156
" />
</g>
<g style="fill:#000000; fill-opacity:0.0; 
stroke:#000000; stroke-width:78.7402; stroke-opacity:1; 
stroke-linecap:round; stroke-linejoin:round;">
<path d="M123214 4814
L117781 4814
" />
<path d="M168214 19814
L168214 25247
" />
<path d="M190714 19814
L185281 19814
" />
<path d="M138214 4814
L138214 10247
" />
<path d="M115714 19814
L110281 19814
" />
<path d="M114031 27314
L160811 27314
" />
<path d="M147781 25247
L153214 25247
" />
<path d="M159031 27314
L186964 27314
" />
<path d="M175714 4814
L170281 4814
" />
<path d="M162781 25247
L168214 25247
" />
<path d="M190714 19814
L190714 25247
" />
<path d="M175714 19814
L170281 19814
" />
<path d="M185281 25247
L185281 19814
" />
</g>
<g style="fill:#000000; fill-opacity:0.0; 
stroke:#000000; stroke-width:59.0551; stroke-opacity:1; 
stroke-linecap:round; stroke-linejoin:round;">
<path d="M150498 37531
L190342 37531
" />
</g>
<g style="fill:#000000; fill-opacity:0.0; 
stroke:#000000; stroke-width:78.7402; stroke-opacity:1; 
stroke-linecap:round; stroke-linejoin:round;">
<path d="M168214 4814
L162781 4814
" />
<path d="M115714 4814
L115714 10247
" />
</g>
<g style="fill:#000000; fill-opacity:0.0; 
stroke:#000000; stroke-width:59.0551; stroke-opacity:1; 
stroke-linecap:round; stroke-linejoin:round;">
<path d="M150498 37531
L110654 37531
" />
</g>
<g style="fill:#000000; fill-opacity:0.0; 
stroke:#000000; stroke-width:78.7402; stroke-opacity:1; 
stroke-linecap:round; stroke-linejoin:round;">
<path d="M168214 19814
L162781 19814
" />
<path d="M132781 25247
L132781 19814
" />
<path d="M159031 32747
L164464 32747
" />
<path d="M186964 27314
L181531 27314
" />
<path d="M125281 17747
L130714 17747
" />
<path d="M160714 19814
L155281 19814
" />
<path d="M114031 32747
L159873 32747
" />
<path d="M185281 25247
L190714 25247
" />
<path d="M170281 25247
L170281 19814
" />
<path d="M114031 32747
L114031 27314
" />
<path d="M177781 10247
L177781 4814
" />
<path d="M155281 25247
L155281 19814
" />
<path d="M119464 27314
L114031 27314
" />
</g>
<g style="fill:#000000; fill-opacity:0.0; 
stroke:#000000; stroke-width:59.0551; stroke-opacity:1; 
stroke-linecap:round; stroke-linejoin:round;">
<path d="M105499 27687.6 A1406.26 1406.26 0.0 0 0 106905 29093.8 " />
</g>
<g style="fill:#000000; fill-opacity:0.0; 
stroke:#000000; stroke-width:78.7402; stroke-opacity:1; 
stroke-linecap:round; stroke-linejoin:round;">
<path d="M145714 12314
L145714 17747
" />
<path d="M168214 12314
L162781 12314
" />
<path d="M115714 12314
L115714 17747
" />
<path d="M132781 10247
L132781 4814
" />
<path d="M183214 4814
L183214 10247
" />
<path d="M115714 19814
L115714 25247
" />
<path d="M190714 4814
L185281 4814
" />
<path d="M117781 17747
L123214 17747
" />
<path d="M130714 19814
L125281 19814
" />
<path d="M117781 25247
L123214 25247
" />
<path d="M170281 17747
L175714 17747
" />
<path d="M185281 17747
L190714 17747
" />
<path d="M117781 17747
L117781 12314
" />
<path d="M177781 17747
L183214 17747
" />
<path d="M110281 10247
L115714 10247
" />
<path d="M177781 10247
L183214 10247
" />
<path d="M162781 17747
L168214 17747
" />
<path d="M110281 25247
L110281 19814
" />
<path d="M114031 32747
L119464 32747
" />
<path d="M145714 12314
L140281 12314
" />
</g>
<g style="fill:#000000; fill-opacity:0.0; 
stroke:#000000; stroke-width:59.0551; stroke-opacity:1; 
stroke-linecap:round; stroke-linejoin:round;">
<path d="M195968 1437.46 A1406.26 1406.26 0.0 0 0 194562 31.2016 " />
</g>
<g style="fill:#000000; fill-opacity:0.0; 
stroke:#000000; stroke-width:78.7402; stroke-opacity:1; 
stroke-linecap:round; stroke-linejoin:round;">
<path d="M123214 12314
L123214 17747
" />
<path d="M162781 17747
L162781 12314
" />
<path d="M145714 19814
L145714 25247
" />
<path d="M140281 10247
L140281 4814
" />
<path d="M123214 19814
L123214 25247
" />
<path d="M123214 4814
L123214 10247
" />
</g>
<g style="fill:#000000; fill-opacity:0.0; 
stroke:#000000; stroke-width:59.0551; stroke-opacity:1; 
stroke-linecap:round; stroke-linejoin:round;">
<path d="M190343 37531.4 A1406.26 1406.26 0.0 0 0 191749 36125.1 " />
</g>
<g style="fill:#000000; fill-opacity:0.0; 
stroke:#000000; stroke-width:78.7402; stroke-opacity:1; 
stroke-linecap:round; stroke-linejoin:round;">
<path d="M110281 25247
L115714 25247
" />
<path d="M132781 17747
L138214 17747
" />
<path d="M140281 17747
L145714 17747
" />
<path d="M132781 25247
L138214 25247
" />
<path d="M130714 12314
L130714 17747
" />
<path d="M141964 27314
L136531 27314
" />
<path d="M136531 32747
L141964 32747
" />
<path d="M125281 25247
L125281 19814
" />
<path d="M162781 10247
L162781 4814
" />
<path d="M168214 12314
L168214 17747
" />
<path d="M125281 25247
L130714 25247
" />
<path d="M145714 19814
L140281 19814
" />
<path d="M170281 17747
L170281 12314
" />
<path d="M110281 17747
L115714 17747
" />
<path d="M117781 25247
L117781 19814
" />
<path d="M115714 12314
L110281 12314
" />
<path d="M155281 17747
L160714 17747
" />
<path d="M130714 12314
L125281 12314
" />
<path d="M185281 17747
L185281 12314
" />
<path d="M175714 12314
L170281 12314
" />
<path d="M145714 4814
L145714 10247
" />
<path d="M175714 12314
L175714 17747
" />
<path d="M160714 12314
L155281 12314
" />
<path d="M138214 4814
L132781 4814
" />
<path d="M123214 19814
L117781 19814
" />
</g>
<g style="fill:#000000; fill-opacity:0.0; 
stroke:#000000; stroke-width:59.0551; stroke-opacity:1; 
stroke-linecap:round; stroke-linejoin:round;">
<path d="M300968 83000
L304718 83000
" />
<path d="M221280 83000
L225030 83000
" />
<path d="M194562 29562.6 A1406.26 1406.26 0.0 0 0 195968 28156.3 " />
</g>
<g style="fill:#000000; fill-opacity:0.0; 
stroke:#000000; stroke-width:78.7402; stroke-opacity:1; 
stroke-linecap:round; stroke-linejoin:round;">
<path d="M175714 4814
L175714 10247
" />
<path d="M190714 4814
L190714 10247
" />
<path d="M123214 12314
L117781 12314
" />
<path d="M153214 4814
L153214 10247
" />
<path d="M145714 4814
L140281 4814
" />
</g>
<g style="fill:#000000; fill-opacity:0.0; 
stroke:#000000; stroke-width:59.0551; stroke-opacity:1; 
stroke-linecap:round; stroke-linejoin:round;">
<path d="M310812 55343.9 A1406.26 1406.26 0.0 0 0 309406 53937.7 " />
</g>
<g style="fill:#000000; fill-opacity:0.0; 
stroke:#000000; stroke-width:78.7402; stroke-opacity:1; 
stroke-linecap:round; stroke-linejoin:round;">
<path d="M130714 4814
L130714 10247
" />
<path d="M190714 12314
L190714 17747
" />
<path d="M132781 10247
L138214 10247
" />
</g>
<g style="fill:#000000; fill-opacity:0.0; 
stroke:#000000; stroke-width:59.0551; stroke-opacity:1; 
stroke-linecap:round; stroke-linejoin:round;">
<path d="M217061 53937
L297687 53937
" />
</g>
<g style="fill:#000000; fill-opacity:0.0; 
stroke:#000000; stroke-width:78.7402; stroke-opacity:1; 
stroke-linecap:round; stroke-linejoin:round;">
<path d="M153214 4814
L147781 4814
" />
<path d="M140281 17747
L140281 12314
" />
<path d="M155281 17747
L155281 12314
" />
</g>
<g style="fill:#000000; fill-opacity:0.0; 
stroke:#000000; stroke-width:59.0551; stroke-opacity:1; 
stroke-linecap:round; stroke-linejoin:round;">
<path d="M309406 96125.4 A1406.26 1406.26 0.0 0 0 310812 94719.1 " />
<path d="M225030 90500
L300968 90500
" />
</g>
<g style="fill:#000000; fill-opacity:0.0; 
stroke:#000000; stroke-width:78.7402; stroke-opacity:1; 
stroke-linecap:round; stroke-linejoin:round;">
<path d="M132781 17747
L132781 12314
" />
<path d="M147781 25247
L147781 19814
" />
</g>
<g style="fill:#000000; fill-opacity:0.0; 
stroke:#000000; stroke-width:59.0551; stroke-opacity:1; 
stroke-linecap:round; stroke-linejoin:round;">
<path d="M221280 59562
L297687 59562
" />
<path d="M217062 53937.7 A1406.26 1406.26 0.0 0 0 215655 55343.9 " />
<path d="M104561 53937
L175811 53937
" />
</g>
<g style="fill:#000000; fill-opacity:0.0; 
stroke:#000000; stroke-width:78.7402; stroke-opacity:1; 
stroke-linecap:round; stroke-linejoin:round;">
<path d="M160714 12314
L160714 17747
" />
</g>
<g style="fill:#000000; fill-opacity:0.0; 
stroke:#000000; stroke-width:59.0551; stroke-opacity:1; 
stroke-linecap:round; stroke-linejoin:round;">
<path d="M103155 94719.1 A1406.26 1406.26 0.0 0 0 104561 96125.4 " />
<path d="M103154 55343
L103154 94719
" />
</g>
<g style="fill:#000000; fill-opacity:0.0; 
stroke:#000000; stroke-width:78.7402; stroke-opacity:1; 
stroke-linecap:round; stroke-linejoin:round;">
<path d="M140281 10247
L145714 10247
" />
<path d="M168214 4814
L168214 10247
" />
<path d="M125281 17747
L125281 12314
" />
<path d="M125281 10247
L130714 10247
" />
<path d="M115714 4814
L110281 4814
" />
</g>
<g style="fill:#000000; fill-opacity:0.0; 
stroke:#000000; stroke-width:59.0551; stroke-opacity:1; 
stroke-linecap:round; stroke-linejoin:round;">
<path d="M215655 94719.1 A1406.26 1406.26 0.0 0 0 217062 96125.4 " />
</g>
<g style="fill:#000000; fill-opacity:0.0; 
stroke:#000000; stroke-width:78.7402; stroke-opacity:1; 
stroke-linecap:round; stroke-linejoin:round;">
<path d="M117781 10247
L117781 4814
" />
<path d="M125281 10247
L125281 4814
" />
</g>
<g style="fill:#000000; fill-opacity:0.0; 
stroke:#000000; stroke-width:59.0551; stroke-opacity:1; 
stroke-linecap:round; stroke-linejoin:round;">
<path d="M109249 36125.1 A1406.26 1406.26 0.0 0 0 110655 37531.4 " />
</g>
<g style="fill:#000000; fill-opacity:0.0; 
stroke:#000000; stroke-width:78.7402; stroke-opacity:1; 
stroke-linecap:round; stroke-linejoin:round;">
<path d="M177781 17747
L177781 12314
" />
</g>
<g style="fill:#000000; fill-opacity:0.0; 
stroke:#000000; stroke-width:59.0551; stroke-opacity:1; 
stroke-linecap:round; stroke-linejoin:round;">
<path d="M310812 55343
L310812 94719
" />
<path d="M198311 55343
L198311 94719
" />
</g>
<g style="fill:#000000; fill-opacity:0.0; 
stroke:#000000; stroke-width:78.7402; stroke-opacity:1; 
stroke-linecap:round; stroke-linejoin:round;">
<path d="M185281 10247
L190714 10247
" />
<path d="M130714 4814
L125281 4814
" />
<path d="M110281 17747
L110281 12314
" />
<path d="M183214 12314
L177781 12314
" />
<path d="M147781 10247
L147781 4814
" />
</g>
<g style="fill:#000000; fill-opacity:0.0; 
stroke:#000000; stroke-width:59.0551; stroke-opacity:1; 
stroke-linecap:round; stroke-linejoin:round;">
<path d="M297687 59562
L304718 59562
" />
<path d="M221280 59562
L221280 83000
" />
<path d="M104561 53937.7 A1406.26 1406.26 0.0 0 0 103155 55343.9 " />
<path d="M104561 96125
L196905 96125
" />
<path d="M175811 74562
L175811 53937
" />
<path d="M185186 53937
L196905 53937
" />
</g>
<g style="fill:#000000; fill-opacity:0.0; 
stroke:#000000; stroke-width:78.7402; stroke-opacity:1; 
stroke-linecap:round; stroke-linejoin:round;">
<path d="M190714 12314
L185281 12314
" />
<path d="M138214 12314
L138214 17747
" />
</g>
<g style="fill:#000000; fill-opacity:0.0; 
stroke:#000000; stroke-width:59.0551; stroke-opacity:1; 
stroke-linecap:round; stroke-linejoin:round;">
<path d="M304718 59562
L304718 83000
" />
</g>
<g style="fill:#000000; fill-opacity:0.0; 
stroke:#000000; stroke-width:78.7402; stroke-opacity:1; 
stroke-linecap:round; stroke-linejoin:round;">
<path d="M138214 19814
L138214 25247
" />
</g>
<g style="fill:#000000; fill-opacity:0.0; 
stroke:#000000; stroke-width:59.0551; stroke-opacity:1; 
stroke-linecap:round; stroke-linejoin:round;">
<path d="M198312 55343.9 A1406.26 1406.26 0.0 0 0 196905 53937.7 " />
<path d="M175811 74562
L185186 74562
" />
<path d="M185186 74562
L185186 53937
" />
<circle cx="186593" cy="67531.5" r="937.504" /> 
</g>
<g style="fill:#000000; fill-opacity:0.0; 
stroke:#000000; stroke-width:78.7402; stroke-opacity:1; 
stroke-linecap:round; stroke-linejoin:round;">
<path d="M183214 12314
L183214 17747
" />
</g>
<g style="fill:#000000; fill-opacity:0.0; 
stroke:#000000; stroke-width:59.0551; stroke-opacity:1; 
stroke-linecap:round; stroke-linejoin:round;">
<path d="M297687 53937
L309405 53937
" />
<path d="M217061 96125
L309405 96125
" />
<path d="M196905 96125.4 A1406.26 1406.26 0.0 0 0 198312 94719.1 " />
</g>
<g style="fill:#000000; fill-opacity:0.0; 
stroke:#000000; stroke-width:78.7402; stroke-opacity:1; 
stroke-linecap:round; stroke-linejoin:round;">
<path d="M117781 10247
L123214 10247
" />
</g>
<g style="fill:#000000; fill-opacity:0.0; 
stroke:#000000; stroke-width:59.0551; stroke-opacity:1; 
stroke-linecap:round; stroke-linejoin:round;">
<path d="M215655 55343
L215655 94719
" />
<path d="M1435 96125
L93779 96125
" />
<path d="M1435.78 53937.7 A1406.26 1406.26 0.0 0 0 29.528 55343.9 " />
<path d="M1435 53937
L72686 53937
" />
<path d="M29 55343
L29 94719
" />
<path d="M29.528 94719.1 A1406.26 1406.26 0.0 0 0 1435.78 96125.4 " />
<path d="M82061 59562
L82061 53937
" />
<path d="M72686 59562
L72686 53937
" />
<path d="M93779.9 96125.4 A1406.26 1406.26 0.0 0 0 95186.2 94719.1 " />
<path d="M95186.2 55343.9 A1406.26 1406.26 0.0 0 0 93779.9 53937.7 " />
<path d="M82061 53937
L93779 53937
" />
<path d="M5654 59562
L72686 59562
" />
<path d="M82061 59562
L89092 59562
" />
<path d="M95186 55343
L95186 94719
" />
<path d="M300968 90500
L300968 83000
" />
<path d="M225030 90500
L225030 83000
" />
<path d="M82061 53937
L93779 53937
" />
<path d="M1435 96125
L93779 96125
" />
<path d="M9404 90500
L85342 90500
" />
<path d="M1435.78 53937.7 A1406.26 1406.26 0.0 0 0 29.528 55343.9 " />
<path d="M93779.9 96125.4 A1406.26 1406.26 0.0 0 0 95186.2 94719.1 " />
<path d="M5654 59562
L5654 83000
" />
<path d="M5654 83000
L9404 83000
" />
<path d="M95186.2 55343.9 A1406.26 1406.26 0.0 0 0 93779.9 53937.7 " />
<path d="M89092 59562
L89092 83000
" />
<path d="M95186 55343
L95186 94719
" />
<path d="M85342 90500
L85342 83000
" />
<path d="M29 55343
L29 94719
" />
<path d="M9404 90500
L9404 83000
" />
<path d="M82061 59562
L89092 59562
" />
<path d="M29.528 94719.1 A1406.26 1406.26 0.0 0 0 1435.78 96125.4 " />
<path d="M85342 83000
L89092 83000
" />
<path d="M88623 152844
L88623 146281
" />
<path d="M3781.01 116749 A1406.26 1406.26 0.0 0 0 2374.75 118155 " />
<path d="M92842.4 118157 A1406.26 1406.26 0.0 0 0 91436.2 116750 " />
<path d="M3779 145813
L6123 145813
" />
<path d="M6123 152844
L6123 145813
" />
<path d="M29 115812
L29 155188
" />
<path d="M87217.4 154251 A1406.26 1406.26 0.0 0 0 88623.7 152844 " />
<path d="M82061 114406
L93779 114406
" />
<path d="M6123.3 152844 A1406.26 1406.26 0.0 0 0 7529.56 154251 " />
<path d="M91436 116750
L82061 116750
" />
<path d="M95186.2 115813 A1406.26 1406.26 0.0 0 0 93779.9 114407 " />
<path d="M2373 118156
L2375 144406
" />
<path d="M1435.78 114407 A1406.26 1406.26 0.0 0 0 29.528 115813 " />
<path d="M72686 116750
L72686 114406
" />
<path d="M1435 114406
L72686 114406
" />
<path d="M1435 156594
L93779 156594
" />
<path d="M93779.9 156594 A1406.26 1406.26 0.0 0 0 95186.2 155188 " />
<path d="M82061 116750
L82061 114406
" />
<path d="M47373 154250
L87217 154250
" />
<path d="M29.528 155188 A1406.26 1406.26 0.0 0 0 1435.78 156594 " />
<path d="M47373 154250
L7529 154250
" />
<path d="M47373 116750
L72686 116750
" />
<path d="M91436.2 146282 A1406.26 1406.26 0.0 0 0 92842.4 144876 " />
<path d="M88623 146281
L91436 146281
" />
<path d="M92842 118156
L92842 144875
" />
<path d="M47373 116750
L3779 116750
" />
<path d="M95186 115812
L95186 155188
" />
<path d="M2373.29 144407 A1406.26 1406.26 0.0 0 0 3779.54 145813 " />
<g >
</g>
<g >
</g>
<g >
</g>
<g >
</g>
<g >
</g>
<g >
</g>
<g >
</g>
<g >
</g>
<g >
</g>
<g >
</g>
<g >
</g>
<g >
</g>
<g >
</g>
<g >
</g>
<g >
</g>
<g >
</g>
<g >
</g>
<g >
</g>
<g >
</g>
<g >
</g>
<g >
</g>
<g >
</g>
<g >
</g>
<g >
</g>
<g >
</g>
<g >
</g>
<g >
</g>
<g >
</g>
<g >
</g>
<g >
</g>
<g >
</g>
<g >
</g>
<g >
</g>
<g >
</g>
<g >
</g>
<g >
</g>
<g >
</g>
<g >
</g>
<g >
</g>
<g >
</g>
<g >
</g>
<g >
</g>
<g >
</g>
<g >
</g>
<g >
</g>
<g >
</g>
<g >
</g>
<g >
</g>
<g >
</g>
<g >
</g>
<g >
</g>
<g >
</g>
<g >
</g>
<g >
</g>
<g >
</g>
<g >
</g>
<g >
</g>
<g >
</g>
<g >
</g>
<g >
</g>
<g >
</g>
</g> 
</svg>
